<svg width="25" height="25" viewBox="0 0 25 25" fill="none" xmlns="http://www.w3.org/2000/svg">
<path opacity="0.35" d="M16.5981 3.7229L13.6606 2.5479C12.9158 2.24998 12.0845 2.24998 11.3397 2.5479L8.40225 3.7229C7.68975 4.00832 6.89495 4.00832 6.18245 3.7229C4.21891 2.93748 2.0835 4.38332 2.0835 6.4979V18.8104C2.0835 20.0323 2.82725 21.1312 3.96162 21.5854L6.18141 22.4729C6.89391 22.7583 7.6887 22.7583 8.4012 22.4729L11.3387 21.2979C12.0835 21 12.9147 21 13.6595 21.2979L16.597 22.4729C17.3095 22.7583 18.1043 22.7583 18.8168 22.4729L21.0366 21.5854C22.1731 21.1312 22.9168 20.0323 22.9168 18.8104V6.4979C22.9168 4.38332 20.7814 2.93748 18.8189 3.7229C18.1064 4.00728 17.3106 4.00728 16.5981 3.7229Z" fill="url(#paint0_linear_2_1281)"/>
<path d="M5.20817 15.625C5.78347 15.625 6.24984 15.1587 6.24984 14.5834C6.24984 14.0081 5.78347 13.5417 5.20817 13.5417C4.63287 13.5417 4.1665 14.0081 4.1665 14.5834C4.1665 15.1587 4.63287 15.625 5.20817 15.625Z" fill="url(#paint1_linear_2_1281)"/>
<path d="M9.37516 10.4166C9.95046 10.4166 10.4168 9.95028 10.4168 9.37498C10.4168 8.79968 9.95046 8.33331 9.37516 8.33331C8.79987 8.33331 8.3335 8.79968 8.3335 9.37498C8.3335 9.95028 8.79987 10.4166 9.37516 10.4166Z" fill="url(#paint2_linear_2_1281)"/>
<path d="M7.29167 12.5C7.86696 12.5 8.33333 12.0337 8.33333 11.4584C8.33333 10.8831 7.86696 10.4167 7.29167 10.4167C6.71637 10.4167 6.25 10.8831 6.25 11.4584C6.25 12.0337 6.71637 12.5 7.29167 12.5Z" fill="url(#paint3_linear_2_1281)"/>
<path d="M13.5417 13.5416C14.117 13.5416 14.5833 13.0753 14.5833 12.5C14.5833 11.9247 14.117 11.4583 13.5417 11.4583C12.9664 11.4583 12.5 11.9247 12.5 12.5C12.5 13.0753 12.9664 13.5416 13.5417 13.5416Z" fill="url(#paint4_linear_2_1281)"/>
<path d="M12.5002 10.4166C13.0755 10.4166 13.5418 9.95028 13.5418 9.37498C13.5418 8.79968 13.0755 8.33331 12.5002 8.33331C11.9249 8.33331 11.4585 8.79968 11.4585 9.37498C11.4585 9.95028 11.9249 10.4166 12.5002 10.4166Z" fill="url(#paint5_linear_2_1281)"/>
<path d="M19.7023 13.0208L20.5284 12.1948C20.9357 11.7875 20.9357 11.1291 20.5284 10.7219C20.1211 10.3146 19.4628 10.3146 19.0555 10.7219L18.2294 11.5479L17.4034 10.7219C16.9961 10.3146 16.3378 10.3146 15.9305 10.7219C15.5232 11.1291 15.5232 11.7875 15.9305 12.1948L16.7565 13.0208L15.9305 13.8469C15.5232 14.2541 15.5232 14.9125 15.9305 15.3198C16.1336 15.5229 16.4003 15.625 16.6669 15.625C16.9336 15.625 17.2003 15.5229 17.4034 15.3198L18.2294 14.4937L19.0555 15.3198C19.2586 15.5229 19.5253 15.625 19.7919 15.625C20.0586 15.625 20.3253 15.5229 20.5284 15.3198C20.9357 14.9125 20.9357 14.2541 20.5284 13.8469L19.7023 13.0208Z" fill="url(#paint6_linear_2_1281)"/>
<defs>
<linearGradient id="paint0_linear_2_1281" x1="2.0835" y1="12.5057" x2="20.7173" y2="12.596" gradientUnits="userSpaceOnUse">
<stop stop-color="#AD54F0"/>
<stop offset="1" stop-color="#D24DBC"/>
</linearGradient>
<linearGradient id="paint1_linear_2_1281" x1="4.1665" y1="14.5834" x2="6.02989" y2="14.5922" gradientUnits="userSpaceOnUse">
<stop stop-color="#AD54F0"/>
<stop offset="1" stop-color="#D24DBC"/>
</linearGradient>
<linearGradient id="paint2_linear_2_1281" x1="8.3335" y1="9.37498" x2="10.1969" y2="9.3838" gradientUnits="userSpaceOnUse">
<stop stop-color="#AD54F0"/>
<stop offset="1" stop-color="#D24DBC"/>
</linearGradient>
<linearGradient id="paint3_linear_2_1281" x1="6.25" y1="11.4584" x2="8.11339" y2="11.4672" gradientUnits="userSpaceOnUse">
<stop stop-color="#AD54F0"/>
<stop offset="1" stop-color="#D24DBC"/>
</linearGradient>
<linearGradient id="paint4_linear_2_1281" x1="12.5" y1="12.5" x2="14.3634" y2="12.5088" gradientUnits="userSpaceOnUse">
<stop stop-color="#AD54F0"/>
<stop offset="1" stop-color="#D24DBC"/>
</linearGradient>
<linearGradient id="paint5_linear_2_1281" x1="11.4585" y1="9.37498" x2="13.3219" y2="9.3838" gradientUnits="userSpaceOnUse">
<stop stop-color="#AD54F0"/>
<stop offset="1" stop-color="#D24DBC"/>
</linearGradient>
<linearGradient id="paint6_linear_2_1281" x1="15.625" y1="13.0207" x2="20.2839" y2="13.0427" gradientUnits="userSpaceOnUse">
<stop stop-color="#AD54F0"/>
<stop offset="1" stop-color="#D24DBC"/>
</linearGradient>
</defs>
</svg>
