<svg width="16" height="16" viewBox="0 0 16 16" fill="none" xmlns="http://www.w3.org/2000/svg">
<path d="M9.21698 15.94V10.347H11.0688L11.4261 8.05232C11.4289 8.03978 11.4109 8.01608 11.4039 8.01608H9.21559V6.40034C9.24052 6.18426 9.28484 5.97375 9.39841 5.78694C9.82362 5.08293 10.8305 5.3032 11.5161 5.26556V3.29572C11.3111 3.26366 11.1034 3.22881 10.8956 3.20511C9.61725 3.0643 8.2433 3.04758 7.36381 4.14472C6.48848 5.23628 6.76825 6.71401 6.72116 8.01608H4.70457V10.347H6.72116V15.94C3.24752 15.4242 0.488554 12.5315 0.0605815 9.02818C-0.443567 4.90867 2.24892 1.05543 6.27103 0.185529C11.6214 -0.971558 16.4648 3.44628 15.8942 8.90968C15.5244 12.4534 12.7225 15.427 9.21698 15.94Z" fill="white" fill-opacity="0.6"/>
</svg>
