<svg width="16" height="16" viewBox="0 0 16 16" fill="none" xmlns="http://www.w3.org/2000/svg">
<path d="M7.97002 0C3.56821 0 0 3.56821 0 7.97002C0 12.3718 3.56821 15.94 7.97002 15.94C12.3718 15.94 15.94 12.3718 15.94 7.97002C15.94 3.56821 12.3718 0 7.97002 0ZM12.9729 10.0467C12.9412 10.1828 12.9478 10.3308 12.9306 10.4708C12.6968 12.3375 11.3903 13.002 9.64381 13.0231C9.61078 13.0231 9.5553 13.0099 9.53416 13.0429C8.45088 13.0429 7.33458 13.0773 6.25527 13.0429C5.4613 13.0178 4.66338 12.9452 3.99492 12.4722C3.01864 11.78 2.84955 10.7456 2.8152 9.62135C2.88786 8.25537 2.6963 6.7652 2.87861 5.41507C3.13754 3.49027 4.50089 2.93806 6.25527 2.88257H9.51435L10.4365 2.94467C11.6637 3.10716 12.5832 3.84035 12.8646 5.06498L12.9742 5.81931V10.0467H12.9729Z" fill="white" fill-opacity="0.6"/>
<path d="M9.7233 3.83482C8.58585 3.78462 7.33216 3.77934 6.19208 3.82029C4.90403 3.86653 3.96475 4.15452 3.79433 5.59317C3.68865 6.48092 3.74942 7.45587 3.75338 8.34892C3.75999 10.0306 3.46671 11.8828 5.67025 12.0902C5.93183 12.1153 6.20397 12.1021 6.46554 12.11C7.61223 12.1444 8.78005 12.1576 9.92278 12.0915C11.4129 12.0056 11.9599 11.4151 12.0391 9.93816C12.1091 8.64087 12.1065 7.30527 12.0391 6.00798C11.9533 4.36193 11.3165 3.90616 9.7233 3.83614V3.83482ZM10.1672 9.27763C9.18034 10.9831 6.70201 11.0069 5.67025 9.32915C4.62265 7.62497 5.82746 5.40689 7.82096 5.34745C9.86597 5.28668 11.195 7.49947 10.1672 9.27763ZM10.6969 5.8587C9.83162 5.94193 9.77482 4.64992 10.6177 4.63935C11.3944 4.63011 11.4341 5.78736 10.6969 5.8587Z" fill="white" fill-opacity="0.6"/>
<path d="M7.72164 6.28161C6.5525 6.39126 5.86422 7.68459 6.39001 8.72955C6.98184 9.90663 8.69263 9.96872 9.35845 8.82863C10.0665 7.61589 9.11537 6.15082 7.72164 6.28161Z" fill="white" fill-opacity="0.6"/>
</svg>
