<svg width="13" height="13" viewBox="0 0 13 13" fill="none" xmlns="http://www.w3.org/2000/svg">
<path d="M12.1569 0.000205738C12.1388 0.000746335 12.1208 0.00226766 12.1029 0.00476303H7.5C7.43374 0.00382601 7.36796 0.0160666 7.30648 0.0407735C7.245 0.0654803 7.18903 0.102161 7.14185 0.148683C7.09466 0.195205 7.0572 0.250641 7.03162 0.31177C7.00605 0.372899 6.99288 0.438501 6.99288 0.504763C6.99288 0.571026 7.00605 0.636628 7.03162 0.697756C7.0572 0.758885 7.09466 0.814321 7.14185 0.860843C7.18903 0.907366 7.245 0.944046 7.30648 0.968753C7.36796 0.99346 7.43374 1.0057 7.5 1.00476H10.9596L5.81315 6.15125C5.76517 6.19732 5.72686 6.25251 5.70046 6.31357C5.67407 6.37463 5.66013 6.44035 5.65945 6.50687C5.65878 6.57339 5.67138 6.63938 5.69653 6.70096C5.72167 6.76255 5.75885 6.8185 5.80589 6.86554C5.85293 6.91258 5.90888 6.94976 5.97047 6.97491C6.03206 7.00005 6.09804 7.01265 6.16456 7.01198C6.23108 7.0113 6.2968 6.99736 6.35786 6.97097C6.41893 6.94458 6.47411 6.90627 6.52018 6.85828L11.6667 1.71179V5.17143C11.6657 5.23769 11.678 5.30347 11.7027 5.36495C11.7274 5.42644 11.7641 5.4824 11.8106 5.52958C11.8571 5.57677 11.9125 5.61424 11.9737 5.63981C12.0348 5.66538 12.1004 5.67855 12.1667 5.67855C12.2329 5.67855 12.2985 5.66538 12.3597 5.63981C12.4208 5.61424 12.4762 5.57677 12.5227 5.52958C12.5693 5.4824 12.606 5.42644 12.6307 5.36495C12.6554 5.30347 12.6676 5.23769 12.6667 5.17143V0.567914C12.6765 0.495976 12.6706 0.422755 12.6493 0.353341C12.628 0.283927 12.5918 0.219985 12.5433 0.165959C12.4948 0.111933 12.4351 0.0691201 12.3684 0.0404959C12.3016 0.0118718 12.2295 -0.00187681 12.1569 0.000205738ZM2.5 1.00476C1.12517 1.00476 0 2.12993 0 3.50476V10.1714C0 11.5463 1.12517 12.6714 2.5 12.6714H9.16667C10.5415 12.6714 11.6667 11.5463 11.6667 10.1714V6.8381C11.6676 6.77184 11.6554 6.70606 11.6307 6.64458C11.606 6.58309 11.5693 6.52713 11.5227 6.47995C11.4762 6.43276 11.4208 6.39529 11.3597 6.36972C11.2985 6.34415 11.2329 6.33098 11.1667 6.33098C11.1004 6.33098 11.0348 6.34415 10.9737 6.36972C10.9125 6.39529 10.8571 6.43276 10.8106 6.47995C10.7641 6.52713 10.7274 6.58309 10.7027 6.64458C10.678 6.70606 10.6657 6.77184 10.6667 6.8381V10.1714C10.6667 11.0059 10.0012 11.6714 9.16667 11.6714H2.5C1.6655 11.6714 1 11.0059 1 10.1714V3.50476C1 2.67026 1.6655 2.00476 2.5 2.00476H5.83333C5.89959 2.0057 5.96537 1.99346 6.02685 1.96875C6.08834 1.94405 6.1443 1.90737 6.19148 1.86084C6.23867 1.81432 6.27614 1.75888 6.30171 1.69776C6.32729 1.63663 6.34046 1.57103 6.34046 1.50476C6.34046 1.4385 6.32729 1.3729 6.30171 1.31177C6.27614 1.25064 6.23867 1.19521 6.19148 1.14868C6.1443 1.10216 6.08834 1.06548 6.02685 1.04077C5.96537 1.01607 5.89959 1.00383 5.83333 1.00476H2.5Z" fill="url(#paint0_linear_2_1629)"/>
<defs>
<linearGradient id="paint0_linear_2_1629" x1="1.59888e-09" y1="6.33572" x2="11.3335" y2="6.38937" gradientUnits="userSpaceOnUse">
<stop stop-color="#AD54F0"/>
<stop offset="1" stop-color="#D24DBC"/>
</linearGradient>
</defs>
</svg>
