<svg width="16" height="16" viewBox="0 0 16 16" fill="none" xmlns="http://www.w3.org/2000/svg">
<path d="M1.9438 0.0113776L13.9251 0C15.0015 0.115198 15.8476 0.971363 15.94 2.05224V13.8849C15.8462 14.9786 14.9802 15.8462 13.8853 15.94H2.05472C0.96266 15.8376 0.0924266 14.9843 0 13.8849L0.00284233 2.01384C0.113754 0.979897 0.911466 0.149331 1.9438 0.0113776ZM3.56198 2.66805C2.23103 2.86005 2.35901 5.1313 4.03975 4.84686C5.26689 4.63922 5.13892 2.4405 3.56198 2.66805ZM4.85879 5.76987H2.65904V13.2819H4.85879V5.76987ZM8.42788 5.76987H6.18689V13.2819H8.42788V8.57161C8.42788 8.54601 8.55728 8.28006 8.58572 8.2317C9.10473 7.33571 10.4755 7.4566 10.8964 8.3853C10.9504 8.50334 11.0827 8.95987 11.0827 9.06938V13.2819H13.2824C13.2525 11.5781 13.3464 9.86439 13.2298 8.1677C12.981 6.51084 11.8263 5.62054 10.1499 5.76987C9.39907 5.83671 8.85162 6.25769 8.42646 6.8479V5.76845L8.42788 5.76987Z" fill="white" fill-opacity="0.6"/>
</svg>
