<svg width="143" height="32" viewBox="0 0 143 32" fill="none" xmlns="http://www.w3.org/2000/svg">
<rect width="143" height="32" fill="#1E1E1E"/>
<g clip-path="url(#clip0_0_1)">
<rect width="375" height="8530" transform="translate(-28 -7590)" fill="white"/>
<rect width="379" height="1003" transform="translate(-30 -63)" fill="url(#paint0_linear_0_1)"/>
<rect width="379" height="1003" transform="translate(-30 -63)" fill="black" fill-opacity="0.2"/>
<g clip-path="url(#clip1_0_1)">
<path d="M103.211 4.39509V3.81531H110.872V4.39509H103.211ZM107.978 17.5243C107.181 17.5243 106.587 17.3372 106.179 16.9819C105.771 16.6265 105.511 16.1777 105.363 15.654C105.214 15.1116 105.159 14.588 105.159 14.0456V0.879018C105.604 0.879018 106.068 0.785505 106.568 0.59848C107.069 0.411455 107.477 0.205728 107.756 0V14.7376C107.756 15.467 107.848 15.9532 108.015 16.1964C108.182 16.4395 108.479 16.5704 108.906 16.5704C109.369 16.5704 109.796 16.3647 110.223 15.9532C110.649 15.5418 110.983 15.0742 111.243 14.5506L111.725 14.8498C111.336 15.6353 110.853 16.2899 110.241 16.7762C109.648 17.2624 108.887 17.5056 107.96 17.5056L107.978 17.5243Z" fill="white"/>
<path d="M0 4.73175L0.111298 4.17068H7.6425L7.5312 4.73175H0ZM2.30017 17.6178C1.52108 17.6178 0.964587 17.4495 0.630691 17.0941C0.296796 16.7388 0.111298 16.3086 0.074199 15.7849C0.0370995 15.2613 0.074199 14.7376 0.166948 14.2139L2.55987 1.30919C2.98651 1.30919 3.4688 1.21568 3.9882 1.02866C4.52614 0.841631 4.95278 0.654606 5.26813 0.430176L2.57842 14.8685C2.44857 15.5792 2.44857 16.0655 2.57842 16.3086C2.70826 16.5517 2.96796 16.664 3.37605 16.664C3.82125 16.664 4.28499 16.4582 4.78583 16.0655C5.26813 15.654 5.69477 15.2052 6.04722 14.7002L6.45531 14.9994C5.93592 15.7849 5.32378 16.4021 4.65599 16.8884C3.9882 17.3747 3.19056 17.5991 2.28162 17.5991L2.30017 17.6178Z" fill="white"/>
<path d="M51.142 5.98482C51.0678 5.33023 50.8081 4.82526 50.3259 4.45121C49.8436 4.07716 49.0459 3.89014 47.9515 3.89014C46.9498 3.89014 46.0594 4.13327 45.2989 4.63824C44.5383 5.1245 43.8891 5.76039 43.3697 6.50849C42.9431 7.10697 42.5906 7.74285 42.2938 8.37874L43.0729 4.17067H40.4759L38.1387 17.4121H40.6058L41.8857 10.5856C42.0156 10.062 42.2011 9.51959 42.4422 8.93982C42.7576 8.21042 43.1471 7.51842 43.6479 6.86384C44.1302 6.20925 44.7053 5.66688 45.336 5.23672C45.9852 4.80656 46.6901 4.60083 47.4506 4.60083C47.97 4.60083 48.3225 4.76915 48.508 5.1058C48.6935 5.44245 48.7677 5.92871 48.712 6.52719C48.6749 7.14437 48.5636 7.83637 48.4152 8.64057L46.7087 17.3933H49.1943L51.0122 8.19171C51.1791 7.3501 51.2162 6.6207 51.142 5.96612V5.98482Z" fill="white"/>
<path d="M70.9339 4.17041L68.5225 17.4118H71.0638L73.6051 4.17041H70.9339Z" fill="white"/>
<path d="M79.3931 4.73175L79.5044 4.17068H87.0356L86.9243 4.73175H79.3931ZM81.6005 17.6178C80.8215 17.6178 80.265 17.4495 79.9311 17.0941C79.5972 16.7388 79.4117 16.3086 79.3746 15.7849C79.3375 15.2613 79.3746 14.7376 79.4673 14.2139L81.9344 1.30919C82.3611 1.30919 82.8434 1.21568 83.3813 1.02866C83.9193 0.841631 84.3459 0.654606 84.6612 0.430176L81.8973 14.8685C81.7675 15.5792 81.7489 16.0655 81.8788 16.3086C82.0086 16.5517 82.2683 16.664 82.6764 16.664C83.1216 16.664 83.5854 16.4582 84.0862 16.0655C84.5685 15.654 84.9951 15.2052 85.3476 14.7002L85.7557 14.9994C85.2177 15.7849 84.6241 16.4021 83.9378 16.8884C83.27 17.3747 82.4724 17.5991 81.5634 17.5991L81.6005 17.6178Z" fill="white"/>
<path d="M19.5145 5.08723L19.6629 4.43264C17.5482 5.40517 15.99 7.63077 15.7118 8.26666L16.4909 4.05859H13.8939L11.5566 17.3H14.0238L15.3037 10.4736C15.4335 9.94988 15.5819 9.38881 15.8602 8.82773C16.7506 6.97619 19.1806 5.19945 19.5145 5.08723Z" fill="white"/>
<path d="M63.2176 10.1932C62.6797 9.85658 62.0861 9.57604 61.4554 9.35161C60.8247 9.10848 60.2311 8.88405 59.6746 8.64092C59.1181 8.39778 58.6729 8.11725 58.3576 7.7806C58.0422 7.44395 57.9309 7.0138 58.0237 6.49013C58.0979 6.07867 58.2834 5.72332 58.5616 5.42408C58.8399 5.12484 59.1923 4.90041 59.6004 4.73209C60.0085 4.58247 60.4351 4.48896 60.8803 4.48896C61.678 4.48896 62.3458 4.65728 62.8837 4.99393C63.4031 5.31187 63.7926 5.70462 64.0523 6.19089L64.312 5.46149C64.1265 5.19965 63.9596 5.06874 63.9596 5.06874C63.6257 4.71339 63.1991 4.43285 62.6982 4.22712C62.1974 4.02139 61.6223 3.90918 60.9731 3.90918C60.0827 3.90918 59.3036 4.09621 58.6544 4.47026C58.0051 4.84431 57.4857 5.31187 57.1147 5.87294C56.7252 6.45272 56.484 7.0325 56.3727 7.64968C56.2058 8.4913 56.2614 9.16459 56.5397 9.66955C56.7994 10.1745 57.2075 10.586 57.7083 10.9039C58.2277 11.2032 58.7842 11.465 59.3778 11.6894C59.9899 11.9139 60.5464 12.1196 61.0844 12.344C61.6038 12.5684 62.0304 12.8677 62.3272 13.223C62.624 13.5784 62.7168 14.0646 62.6055 14.6631C62.4942 15.2242 62.2716 15.6731 61.9006 16.0284C61.5296 16.3838 61.1029 16.6456 60.6021 16.8326C60.1012 17.0009 59.5819 17.0945 59.0439 17.0945C58.339 17.0945 57.7083 16.9261 57.1704 16.6082C56.6324 16.2902 56.1872 15.8414 55.8905 15.299C55.705 14.9624 55.5751 14.5883 55.5009 14.1956L55.2598 15.3177C55.5751 16.0097 55.9647 16.4212 55.9647 16.4212C56.3542 16.8139 56.8179 17.1319 57.3559 17.3563C57.8938 17.5807 58.506 17.6929 59.1552 17.6929C60.0456 17.6929 60.8803 17.5246 61.6594 17.1693C62.4385 16.8139 63.0878 16.3089 63.6257 15.6731C64.1636 15.0372 64.5161 14.2891 64.683 13.4288C64.8314 12.6246 64.7758 11.97 64.479 11.465C64.2007 10.96 63.7926 10.5299 63.2362 10.1932H63.2176Z" fill="white"/>
<path d="M34.3175 6.15345C34.2248 5.42405 33.9094 4.82557 33.3344 4.35801C32.7779 3.89045 31.8318 3.66602 30.5148 3.66602C30.218 3.66602 29.9027 3.68472 29.6059 3.72212V3.68472C29.0494 3.75953 28.53 3.85304 27.992 3.98396C27.4541 4.11488 26.9347 4.24579 26.4153 4.45152L26.5266 4.78817C27.5283 4.47022 28.6042 4.33931 29.6615 4.24579C29.6615 4.24579 29.8285 4.24579 29.9212 4.24579C30.6818 4.24579 31.2011 4.45152 31.4979 4.86298C31.7947 5.27443 31.9246 5.7981 31.9246 6.43399C31.9246 7.06987 31.8504 7.74316 31.7205 8.45386L31.4608 9.83785H29.5502C27.5283 9.83785 25.8959 10.2119 24.6716 10.96C23.4474 11.7081 22.7054 12.718 22.4642 14.0272C22.2602 15.1307 22.4642 16.0097 23.0764 16.6643C23.6885 17.3188 24.616 17.6368 25.8588 17.6368C26.8234 17.6368 27.6952 17.3937 28.4372 16.9261C29.1978 16.4585 29.8285 15.7852 30.3293 14.9436C30.4406 14.7566 30.5334 14.5696 30.6261 14.3826C30.6261 14.3826 30.3108 16.0097 30.0511 17.3376H32.5738C32.7408 16.4398 32.8706 15.7291 32.8892 15.6356L34.2248 8.45386C34.3732 7.66835 34.4103 6.90155 34.3175 6.17215V6.15345ZM31.0713 11.9699C30.8673 13.036 30.5519 13.915 30.0882 14.6257C29.6244 15.3364 29.1236 15.8601 28.5485 16.2154C27.992 16.5707 27.4355 16.7391 26.8976 16.7391C26.3968 16.7391 26.0258 16.5895 25.7661 16.3089C25.5064 16.0284 25.3394 15.6543 25.2652 15.2055C25.2096 14.7566 25.2096 14.289 25.3023 13.8028C25.3951 13.2604 25.6177 12.7367 25.9516 12.1944C26.2855 11.652 26.7492 11.2218 27.3242 10.8478C27.8993 10.4924 28.6042 10.3054 29.4575 10.3054H31.3681L31.0527 11.9699H31.0713Z" fill="white"/>
<path d="M97.8124 10.2867C97.2374 9.87529 96.6253 9.51994 95.9575 9.202C95.2897 8.88406 94.6775 8.56612 94.084 8.26688C93.4904 7.94893 93.0266 7.61229 92.6742 7.23824C92.3217 6.86419 92.1733 6.39662 92.2475 5.87295C92.2846 5.4615 92.4516 5.10615 92.7113 4.82561C92.971 4.54508 93.3049 4.35805 93.713 4.22713C94.1211 4.11492 94.5477 4.07751 94.9929 4.13362C95.7905 4.22713 96.4769 4.47027 97.0705 4.88172C97.3673 5.08745 97.627 5.31188 97.8495 5.55501L98.1278 5.01264C97.4786 4.33935 96.8108 4.04011 96.8108 4.04011C96.2914 3.75957 95.6978 3.59125 95.03 3.51644C94.121 3.42292 93.3605 3.51644 92.7298 3.83438C92.0991 4.15232 91.6168 4.56378 91.2829 5.12485C90.9305 5.66723 90.7264 6.26571 90.6708 6.88289C90.5781 7.7245 90.6708 8.4352 91.0047 8.99627C91.32 9.55735 91.7467 10.0249 92.2846 10.399C92.8226 10.773 93.4162 11.1097 94.0469 11.4089C94.6775 11.7081 95.2711 11.9887 95.8276 12.2879C96.3841 12.5872 96.8293 12.9238 97.1632 13.3353C97.4971 13.728 97.627 14.2517 97.5528 14.8502C97.4971 15.4112 97.2931 15.8601 96.9592 16.1967C96.6253 16.5334 96.1986 16.7578 95.6978 16.87C95.1969 16.9822 94.6775 17.0197 94.1396 16.9635C93.4347 16.8887 92.7855 16.6456 92.1919 16.2341C91.6168 15.8414 91.1345 15.3364 90.7821 14.7379C90.7635 14.7005 90.745 14.6631 90.7264 14.6257L90.2812 14.9998C90.4667 15.3177 90.6708 15.6357 90.9676 15.8975C91.3942 16.3464 91.8765 16.7204 92.4516 17.0197C93.0266 17.3189 93.6388 17.5059 94.3065 17.5807C95.2155 17.6742 96.0502 17.5807 96.7922 17.3189C97.5528 17.0384 98.1649 16.5895 98.6657 15.991C99.1666 15.3925 99.4448 14.6444 99.5376 13.7841C99.6303 12.9799 99.5005 12.2879 99.1851 11.7268C98.8512 11.1658 98.406 10.6795 97.831 10.268L97.8124 10.2867Z" fill="white"/>
<path d="M143 4.07764H142.24L137.899 14.3266L132.946 4.07764H129.774L136.452 17.506C135.432 20.2179 133.596 24.8374 130.832 25.9222L131.091 26.5394C134.282 25.4172 136.1 20.3114 137.398 17.3003H137.361L142.982 4.07764H143Z" fill="white"/>
<path d="M124.896 6.09711C124.673 5.36771 124.228 4.76923 123.56 4.28296C122.892 3.7967 121.891 3.57227 120.555 3.57227C119.887 3.57227 119.256 3.64708 118.626 3.77799C117.995 3.92761 117.439 4.11464 116.938 4.37647C116.604 4.5448 116.326 4.73182 116.103 4.95625V6.041C116.159 5.83527 116.27 5.66695 116.4 5.49862C116.66 5.19938 116.975 4.93755 117.383 4.75052C117.791 4.5448 118.218 4.39518 118.7 4.30166C119.164 4.20815 119.627 4.15204 120.054 4.15204C120.833 4.15204 121.408 4.35777 121.779 4.76923C122.15 5.18068 122.391 5.70435 122.521 6.35894C122.633 7.01353 122.688 7.68682 122.688 8.37881V9.7815H120.74C118.681 9.7815 117.086 10.1556 115.973 10.9037C114.86 11.6518 114.304 12.6804 114.304 13.9896C114.304 15.1117 114.675 15.9907 115.435 16.6453C116.196 17.2999 117.197 17.6179 118.459 17.6179C119.442 17.6179 120.277 17.3747 120.963 16.9072C121.649 16.4209 122.15 15.7663 122.521 14.906C122.595 14.719 122.651 14.5319 122.725 14.3449V17.6927C122.614 17.5804 124.803 17.6179 125.267 17.6179V8.37881C125.267 7.59331 125.155 6.8265 124.933 6.09711H124.896ZM122.67 11.951C122.67 13.017 122.503 13.9148 122.169 14.6255C121.835 15.3361 121.408 15.8785 120.907 16.2339C120.407 16.5892 119.869 16.7575 119.331 16.7575C118.83 16.7575 118.403 16.6079 118.088 16.3274C117.754 16.0468 117.531 15.6728 117.383 15.2052C117.235 14.7564 117.16 14.2701 117.16 13.7838C117.16 13.2415 117.29 12.6991 117.531 12.1754C117.773 11.633 118.162 11.1842 118.681 10.8288C119.201 10.4735 119.887 10.2865 120.74 10.2865H122.688V11.951H122.67Z" fill="white"/>
<path d="M30.5332 31.794C30.5332 31.794 30.5332 31.7379 30.5703 31.7005C30.6074 31.6631 30.6259 31.6631 30.6816 31.6444L30.8671 31.607C30.8671 31.607 30.9413 31.5883 30.9598 31.5696C30.9969 31.5509 31.0155 31.5135 31.0526 31.4761C31.0711 31.4387 31.1082 31.3639 31.1268 31.289C31.1453 31.1955 31.1824 31.0833 31.2195 30.9337C31.2566 30.7841 31.2937 30.6158 31.3494 30.4474C31.405 30.2604 31.4421 30.0734 31.4978 29.8864C31.5534 29.6806 31.6091 29.4936 31.6647 29.2879C31.7204 29.1009 31.776 28.9138 31.8131 28.7268C31.8502 28.5585 31.9059 28.3902 31.9244 28.2592C31.9615 28.1283 31.9801 28.0161 31.9986 27.9226C31.9986 27.8478 31.9986 27.8104 31.9986 27.773C31.9986 27.7356 31.943 27.7169 31.8873 27.6982L31.7204 27.6608C31.7204 27.6608 31.6276 27.6234 31.6091 27.6047C31.5905 27.6047 31.572 27.5672 31.572 27.5298C31.572 27.4924 31.572 27.455 31.6276 27.4363C31.6647 27.4176 31.7018 27.3989 31.776 27.3989H33.3342C33.631 27.3989 33.9092 27.455 34.1504 27.5485C34.3915 27.6421 34.5956 27.8104 34.7625 27.9974C34.9295 28.1844 35.0408 28.4276 35.115 28.7081C35.1892 28.9886 35.1892 29.2879 35.115 29.6245C35.0593 29.9799 34.948 30.2978 34.7811 30.5784C34.6141 30.8589 34.4101 31.102 34.1689 31.289C33.9278 31.4761 33.6495 31.6257 33.3342 31.7379C33.0189 31.8314 32.685 31.8875 32.3325 31.8875H30.6445C30.6445 31.8875 30.5517 31.8875 30.5332 31.8501C30.5146 31.8314 30.4961 31.794 30.4961 31.7753L30.5332 31.794ZM32.4067 31.6444C32.6479 31.6444 32.889 31.607 33.1116 31.5135C33.3342 31.42 33.5197 31.289 33.7052 31.1207C33.8907 30.9524 34.0205 30.728 34.1504 30.4848C34.2802 30.2417 34.3544 29.9425 34.4101 29.6245C34.4657 29.3066 34.4657 29.026 34.4286 28.7642C34.3915 28.5024 34.3173 28.3154 34.206 28.147C34.0947 27.9787 33.9649 27.8665 33.8165 27.773C33.6681 27.6982 33.5012 27.6421 33.3342 27.6421H33.0189C33.0189 27.6421 32.889 27.6608 32.8334 27.6982C32.7777 27.7356 32.7406 27.8104 32.7221 27.9039C32.7221 27.9787 32.6664 28.0909 32.6479 28.2405C32.6108 28.3902 32.5737 28.5398 32.518 28.7268C32.4624 28.9138 32.4253 29.1009 32.3696 29.2879C32.314 29.4936 32.2583 29.6806 32.2027 29.8864C32.147 30.0921 32.0914 30.2791 32.0543 30.4661C31.9986 30.6532 31.9615 30.8215 31.9244 30.9524C31.8873 31.102 31.8688 31.2142 31.8502 31.3078C31.8502 31.42 31.8502 31.4948 31.8688 31.5509C31.9059 31.607 31.9615 31.6257 32.0543 31.6257H32.4067V31.6444Z" fill="white"/>
<path d="M38.5651 31.4014C38.5651 31.4014 38.5651 31.5136 38.5651 31.551C38.5651 31.5884 38.6207 31.6071 38.6764 31.6258L38.8433 31.6632C38.8433 31.6632 38.9175 31.682 38.9361 31.7007C38.9361 31.7194 38.9732 31.7381 38.9732 31.7755C38.9732 31.8129 38.9732 31.8503 38.9175 31.869C38.8804 31.8877 38.8433 31.9064 38.7877 31.9064H37.4335C37.4335 31.9064 37.3223 31.9064 37.3037 31.869C37.2852 31.8503 37.2666 31.8129 37.2666 31.7942C37.2666 31.7755 37.2666 31.7381 37.3037 31.7007C37.3408 31.6632 37.3594 31.6632 37.415 31.6445L37.6005 31.6071C37.6005 31.6071 37.7118 31.5697 37.7489 31.5323C37.786 31.4949 37.8231 31.4388 37.8416 31.364C37.8602 31.2892 37.8973 31.177 37.9344 31.0274C37.9715 30.8777 38.0086 30.7281 38.0642 30.5411C38.1199 30.3541 38.157 30.167 38.2126 29.9613C38.2683 29.7556 38.3239 29.5499 38.3796 29.3441C38.4352 29.1384 38.4909 28.9514 38.528 28.7644C38.5836 28.5773 38.6207 28.409 38.6578 28.2594C38.6949 28.1098 38.7135 27.9976 38.732 27.904C38.732 27.8479 38.732 27.7918 38.732 27.7544C38.732 27.717 38.6764 27.6983 38.6207 27.6796L38.4352 27.6422C38.4352 27.6422 38.361 27.6048 38.3425 27.5861C38.3239 27.5674 38.3239 27.5487 38.3239 27.5113C38.3239 27.4739 38.3239 27.4365 38.3796 27.4178C38.4167 27.3991 38.4723 27.3804 38.5465 27.3804H39.8821C39.8821 27.3804 39.9934 27.3804 40.012 27.4178C40.0305 27.4552 40.0491 27.4552 40.0491 27.4926C40.0491 27.53 40.0491 27.5674 40.012 27.5861C39.9934 27.6048 39.9378 27.6235 39.9007 27.6422L39.6966 27.6983C39.6966 27.6983 39.5853 27.7357 39.5482 27.7544C39.5111 27.7731 39.4926 27.8292 39.474 27.904C39.4555 27.9976 39.4184 28.1285 39.3627 28.2781C39.3256 28.4277 39.27 28.6147 39.2143 28.8018C39.1587 28.9888 39.103 29.1945 39.0474 29.4189C38.9917 29.6247 38.9361 29.8491 38.8804 30.0548C38.8248 30.2606 38.7691 30.4476 38.732 30.6346C38.6949 30.8216 38.6578 30.9713 38.6207 31.1022C38.5836 31.2331 38.5651 31.3266 38.5651 31.3827V31.4014Z" fill="white"/>
<path d="M43.3326 31.9813C43.1471 31.9813 42.9987 31.9813 42.8689 31.9252C42.739 31.8878 42.6463 31.8504 42.5721 31.813C42.4979 31.7756 42.4422 31.7195 42.4051 31.6821C42.368 31.6447 42.3309 31.626 42.3124 31.626C42.2938 31.626 42.2567 31.626 42.2382 31.6821C42.2011 31.7195 42.1825 31.7569 42.1454 31.7943C42.1083 31.8317 42.0712 31.8691 42.0527 31.9065C42.0156 31.9439 41.9785 31.9626 41.9599 31.9626C41.9043 31.9626 41.8672 31.9626 41.8486 31.9252C41.8301 31.8878 41.8115 31.8504 41.8115 31.7943L41.9414 30.6909C41.9414 30.6909 41.9599 30.5786 41.997 30.5599C42.0341 30.5412 42.0527 30.5225 42.1083 30.5225C42.164 30.5225 42.1825 30.5225 42.2196 30.5599C42.2382 30.5974 42.2753 30.6348 42.2938 30.6909L42.3309 30.9714C42.3495 31.2332 42.4608 31.4203 42.6277 31.5512C42.7947 31.6821 42.9987 31.7569 43.2399 31.7569C43.3882 31.7569 43.5366 31.7195 43.6665 31.6634C43.7963 31.6073 43.8891 31.5325 43.9633 31.4203C44.0375 31.308 44.0931 31.1958 44.1117 31.0462C44.1488 30.8592 44.1117 30.6722 44.0189 30.5038C43.9262 30.3355 43.7407 30.1672 43.4439 29.9802C43.1286 29.7744 42.906 29.5687 42.7576 29.363C42.6277 29.1573 42.5721 28.9141 42.6092 28.6336C42.6277 28.4092 42.7205 28.2034 42.8503 28.0164C42.9802 27.8294 43.1657 27.6611 43.4068 27.5488C43.6479 27.4366 43.9262 27.3618 44.2601 27.3618C44.5383 27.3618 44.7795 27.3992 44.9835 27.4927C45.1876 27.5862 45.336 27.6985 45.4287 27.8481C45.5215 27.9977 45.5771 28.1473 45.5771 28.3156C45.5771 28.4092 45.54 28.5027 45.5029 28.5588C45.4473 28.6149 45.3916 28.6523 45.2989 28.6523C45.2247 28.6523 45.169 28.6336 45.1134 28.5962C45.0763 28.5588 45.0392 28.484 45.0021 28.4092L44.9464 28.1847C44.8908 27.979 44.8166 27.8481 44.6867 27.7359C44.5569 27.6424 44.4085 27.5862 44.223 27.5862C44.0375 27.5862 43.8891 27.6237 43.7407 27.6985C43.6108 27.7733 43.4995 27.8668 43.4068 27.979C43.3326 28.0912 43.277 28.2221 43.2584 28.3718C43.2213 28.5775 43.2584 28.7645 43.3697 28.9328C43.481 29.1012 43.6665 29.2882 43.9447 29.4752C44.1859 29.6435 44.3714 29.7931 44.5012 29.9428C44.6311 30.0924 44.7238 30.2233 44.7609 30.3729C44.798 30.5225 44.8166 30.6722 44.798 30.8592C44.7795 31.0836 44.7053 31.2893 44.5754 31.4577C44.4456 31.626 44.2786 31.7569 44.0746 31.8504C43.8705 31.9439 43.6294 32 43.3697 32L43.3326 31.9813Z" fill="white"/>
<path d="M50.9567 30.6154C50.9567 30.6154 51.0124 30.6528 51.0124 30.7089C51.0124 30.765 51.0124 30.8024 50.9567 30.8772C50.8454 31.1203 50.697 31.3074 50.5115 31.4757C50.326 31.644 50.122 31.7749 49.8808 31.8684C49.6397 31.962 49.38 31.9994 49.1017 31.9994C48.7493 31.9994 48.4525 31.9245 48.1928 31.7562C47.9331 31.5879 47.7662 31.3448 47.6549 31.0268C47.5436 30.7089 47.525 30.3161 47.5992 29.8486C47.6549 29.5119 47.7476 29.194 47.9146 28.876C48.063 28.5768 48.2484 28.315 48.4896 28.0718C48.7122 27.8474 48.9719 27.6604 49.2501 27.5295C49.5284 27.3985 49.8437 27.3237 50.1591 27.3237C50.2889 27.3237 50.4002 27.3237 50.493 27.3611C50.5857 27.3798 50.6599 27.4172 50.7156 27.4546C50.7712 27.4921 50.8269 27.5108 50.864 27.5482C50.9011 27.5669 50.9382 27.5856 50.9567 27.5856C50.9753 27.5856 51.0124 27.5856 51.0309 27.5482C51.0495 27.5295 51.0866 27.4921 51.1051 27.4546C51.1422 27.4172 51.1608 27.3985 51.1979 27.3611C51.235 27.3424 51.2535 27.3237 51.2906 27.3237C51.3277 27.3237 51.3648 27.3237 51.3834 27.3611C51.4019 27.3798 51.4205 27.4172 51.4205 27.4734L51.4761 28.5394C51.4761 28.5394 51.4761 28.6142 51.439 28.6516C51.4019 28.6703 51.3648 28.689 51.3277 28.689C51.2535 28.689 51.1979 28.6516 51.1608 28.5581L51.0866 28.2963C51.0124 28.0531 50.9011 27.8661 50.7527 27.7539C50.6043 27.6417 50.4188 27.5856 50.1776 27.5856C49.9365 27.5856 49.7324 27.6417 49.5469 27.7539C49.3429 27.8661 49.1759 28.0157 49.009 28.2215C48.842 28.4272 48.7122 28.6516 48.6009 28.9134C48.4896 29.1753 48.4154 29.4558 48.3597 29.7551C48.2855 30.1852 48.2855 30.5219 48.3597 30.8024C48.4339 31.0829 48.5452 31.27 48.7122 31.4009C48.8791 31.5318 49.0832 31.5879 49.3058 31.5879C49.4913 31.5879 49.6582 31.5505 49.8066 31.4944C49.955 31.4383 50.122 31.3261 50.2518 31.1952C50.4002 31.0642 50.5301 30.8959 50.6414 30.6902C50.6785 30.6341 50.7341 30.5967 50.7712 30.578C50.8083 30.5593 50.8454 30.5593 50.8825 30.578L50.9567 30.6154Z" fill="white"/>
<path d="M56.522 27.3237C56.8002 27.3237 57.0599 27.3985 57.2825 27.5108C57.5051 27.623 57.672 27.7913 57.8204 28.0157C57.9688 28.2402 58.043 28.4833 58.0801 28.7638C58.1172 29.0444 58.0801 29.3623 58.0059 29.7177C57.9132 30.0917 57.7833 30.4283 57.5978 30.7089C57.4123 30.9894 57.2083 31.2326 56.9671 31.4383C56.726 31.6253 56.4478 31.7749 56.151 31.8684C55.8542 31.962 55.5574 31.9994 55.242 31.9994C54.9638 31.9994 54.7041 31.9245 54.4815 31.7936C54.2589 31.6627 54.0919 31.4944 53.9621 31.2887C53.8322 31.0829 53.758 30.8024 53.7209 30.5032C53.6838 30.2039 53.7209 29.8673 53.8322 29.5119C53.925 29.194 54.0548 28.8947 54.2218 28.6142C54.3887 28.3524 54.6113 28.1092 54.8525 27.9222C55.0936 27.7352 55.3533 27.5856 55.6501 27.4734C55.9284 27.3798 56.2252 27.3237 56.5405 27.3424L56.522 27.3237ZM55.3533 31.7375C55.5388 31.7375 55.7058 31.7188 55.8913 31.644C56.0768 31.5692 56.2437 31.457 56.4107 31.2887C56.5776 31.1203 56.726 30.9146 56.8744 30.6528C57.0228 30.3909 57.1341 30.073 57.2268 29.699C57.2825 29.5119 57.301 29.3249 57.3381 29.1753C57.3567 29.0257 57.3752 28.876 57.3752 28.7451C57.3752 28.502 57.3381 28.2963 57.2454 28.1279C57.1712 27.9596 57.0599 27.8287 56.9301 27.7352C56.8002 27.6417 56.6518 27.6043 56.4849 27.5856C56.2994 27.5856 56.1139 27.6043 55.9469 27.6791C55.78 27.7539 55.5945 27.8848 55.4275 28.0531C55.2606 28.2215 55.1122 28.4272 54.9823 28.6703C54.8525 28.9134 54.7412 29.2127 54.667 29.5306C54.6113 29.7364 54.5742 29.9421 54.5557 30.1104C54.5371 30.2787 54.5186 30.4283 54.5186 30.578C54.5186 30.9707 54.5928 31.2513 54.7597 31.4383C54.9267 31.6253 55.1307 31.7375 55.409 31.7375H55.3533Z" fill="white"/>
<path d="M63.2923 27.5298C63.2923 27.5298 63.2923 27.455 63.3294 27.4363C63.3665 27.4176 63.3851 27.3989 63.4407 27.3989H64.5908C64.5908 27.3989 64.6835 27.3989 64.7206 27.4363C64.7577 27.4737 64.7577 27.4737 64.7577 27.5111C64.7577 27.5485 64.7577 27.586 64.7206 27.6047C64.7021 27.6234 64.665 27.6608 64.6093 27.6608L64.498 27.6982C64.498 27.6982 64.3682 27.7543 64.3125 27.8104C64.2569 27.8665 64.2012 27.9226 64.1456 27.9974C64.0899 28.0722 64.0343 28.1657 63.9601 28.2779L62.0866 31.2142C62.0866 31.2142 62.0309 31.3078 62.0124 31.3452C61.9938 31.3826 61.9753 31.4387 61.9567 31.4948L61.9011 31.7192C61.9011 31.7192 61.864 31.8127 61.8269 31.8501C61.7898 31.8875 61.7527 31.9062 61.6785 31.9062H61.1776C61.1776 31.9062 61.0849 31.8875 61.0478 31.8501C61.0292 31.8127 61.0292 31.7566 61.0478 31.7005L61.122 31.4761C61.122 31.4761 61.1591 31.3639 61.1591 31.3078C61.1591 31.2516 61.1591 31.1955 61.1591 31.1581V30.915C61.1591 30.8028 61.1591 30.6532 61.1591 30.5035C61.1591 30.3539 61.1591 30.1669 61.1591 29.9799C61.1591 29.7928 61.1591 29.6058 61.1591 29.4001C61.1591 29.2131 61.1591 29.026 61.1591 28.839C61.1591 28.652 61.1591 28.4837 61.1591 28.3528C61.1591 28.2218 61.1591 28.0909 61.1591 27.9974C61.1591 27.9226 61.1591 27.8665 61.122 27.8104C61.1034 27.773 61.0663 27.7356 61.0107 27.7169L60.8808 27.6795C60.8808 27.6795 60.8066 27.6608 60.8066 27.6234C60.8066 27.6047 60.7881 27.5672 60.7881 27.5485C60.7881 27.5111 60.7881 27.4924 60.8437 27.455C60.8994 27.4176 60.9179 27.4176 60.955 27.4176H62.2906C62.2906 27.4176 62.3648 27.4176 62.3834 27.455C62.4019 27.4737 62.4205 27.5111 62.4205 27.5298C62.4205 27.5672 62.4205 27.6047 62.3834 27.6234C62.3648 27.6421 62.3277 27.6608 62.2906 27.6795L62.0495 27.7169C62.0495 27.7169 61.9382 27.7543 61.9011 27.8104C61.8825 27.8665 61.864 27.9413 61.864 28.0348C61.864 28.1283 61.864 28.2592 61.864 28.4089C61.864 28.5585 61.864 28.7455 61.864 28.9512C61.864 29.157 61.864 29.3627 61.864 29.5871C61.864 29.8115 61.864 30.036 61.864 30.2417C61.864 30.4661 61.864 30.6719 61.864 30.8776C61.864 31.0833 61.864 31.2703 61.864 31.42L61.6414 31.4948L63.7004 28.2405C63.756 28.147 63.7931 28.0535 63.8117 27.9787C63.8302 27.9039 63.8117 27.8478 63.7746 27.7917C63.756 27.7356 63.7004 27.6982 63.6447 27.6795L63.4778 27.6421C63.4778 27.6421 63.348 27.5672 63.348 27.5111L63.2923 27.5298Z" fill="white"/>
<path d="M68.3568 31.9061H66.1123C66.1123 31.9061 66.0195 31.9061 66.001 31.8687C65.9824 31.8313 65.9639 31.8126 65.9639 31.7752C65.9639 31.7378 65.9639 31.7191 66.001 31.6817C66.0195 31.663 66.0566 31.6443 66.0937 31.6256L66.3163 31.5882C66.3163 31.5882 66.4276 31.5508 66.4647 31.5134C66.5018 31.476 66.5204 31.4199 66.5575 31.3451C66.5575 31.289 66.5946 31.1767 66.6317 31.0458C66.6688 30.9149 66.7059 30.7466 66.7615 30.5783C66.8172 30.3912 66.8543 30.2042 66.9099 29.9985C66.9656 29.7928 67.0212 29.587 67.0768 29.3813C67.1325 29.1756 67.1881 28.9698 67.2438 28.7828C67.2994 28.5958 67.3365 28.4275 67.3736 28.2779C67.4107 28.1282 67.4478 28.016 67.4478 27.9225C67.4478 27.8477 67.4664 27.7916 67.4478 27.7542C67.4478 27.7168 67.4107 27.6981 67.3551 27.6794L67.151 27.642C67.151 27.642 67.0954 27.6233 67.0768 27.6046C67.0583 27.6046 67.0397 27.5672 67.0397 27.5298C67.0397 27.4923 67.0397 27.4549 67.0768 27.4362C67.1139 27.4175 67.151 27.3988 67.2067 27.3988H69.3585C69.4698 27.3988 69.544 27.3801 69.6182 27.3427C69.6924 27.3053 69.748 27.2866 69.8037 27.2866C69.8964 27.2866 69.9521 27.3427 69.9706 27.4362L70.1005 28.2966C70.1005 28.2966 70.1005 28.3901 70.1005 28.4275C70.0819 28.4649 70.0448 28.4649 70.0077 28.4836C69.9521 28.4836 69.915 28.4836 69.8779 28.4462C69.8408 28.4088 69.8222 28.3714 69.7851 28.3153C69.7295 28.1282 69.6553 27.9786 69.5996 27.8851C69.544 27.7916 69.4698 27.7168 69.3956 27.6794C69.3214 27.642 69.2286 27.6233 69.1359 27.6233H68.2084C68.1713 27.7355 68.1342 27.8851 68.0971 28.0721C68.06 28.2592 68.0043 28.4462 67.9487 28.6519C67.893 28.8576 67.8374 29.0821 67.7817 29.3065C67.7261 29.5309 67.6704 29.7554 67.5962 29.9798C67.5406 30.2042 67.4849 30.4099 67.4293 30.597C67.3736 30.784 67.3365 30.9523 67.2994 31.1019C67.2623 31.2516 67.2438 31.3451 67.2253 31.4199C67.2253 31.476 67.2253 31.5321 67.2253 31.5695C67.2253 31.6069 67.2623 31.6443 67.2994 31.663C67.3365 31.6817 67.4107 31.7004 67.4849 31.7004H68.2455C68.3939 31.7004 68.5237 31.6817 68.635 31.6256C68.7463 31.5695 68.8576 31.4947 68.9504 31.3638C69.0431 31.2329 69.1359 31.0832 69.2286 30.8775C69.2657 30.8027 69.3214 30.7466 69.3956 30.7466C69.4698 30.7466 69.5069 30.8027 69.5069 30.8962C69.5069 31.0458 69.4698 31.1954 69.4327 31.3264C69.3956 31.4573 69.3399 31.5695 69.2657 31.6817C69.1915 31.7939 69.1173 31.8687 69.0246 31.9248C68.9318 31.981 68.8205 32.0184 68.7278 32.0184C68.6536 32.0184 68.5979 32.0184 68.5423 31.981C68.4866 31.9435 68.4124 31.9435 68.3382 31.9435L68.3568 31.9061ZM67.4107 29.5309H68.5608C68.6536 29.5309 68.7278 29.4935 68.7834 29.4374C68.8391 29.3813 68.8762 29.2691 68.8762 29.1008C68.8762 29.0634 68.8947 29.0447 68.9318 29.026C68.9504 29.026 68.9689 29.0073 69.006 29.0073C69.0431 29.0073 69.0802 29.0073 69.0988 29.0447C69.1173 29.0634 69.1359 29.1008 69.1359 29.1382L69.3028 30.0733C69.3028 30.0733 69.3028 30.1668 69.2843 30.2042C69.2657 30.2416 69.2286 30.2416 69.1915 30.2416C69.1544 30.2416 69.1173 30.2416 69.0988 30.2229C69.0802 30.2229 69.0617 30.1855 69.0431 30.1481C68.9875 29.9985 68.9318 29.8863 68.8762 29.8489C68.802 29.7928 68.7092 29.7741 68.5979 29.7741H67.3551L67.4293 29.5496L67.4107 29.5309Z" fill="white"/>
<path d="M73.2721 29.9613L73.4576 29.7743C73.4576 29.7743 73.6617 29.8678 73.773 29.9052C73.9028 29.9426 74.0326 29.9613 74.181 29.9613C74.4222 29.9613 74.6448 29.9239 74.8303 29.8304C75.0158 29.7369 75.1642 29.606 75.2755 29.4376C75.3868 29.2693 75.461 29.0636 75.4981 28.8392C75.5537 28.5773 75.5352 28.3529 75.4795 28.1846C75.4053 28.0163 75.3126 27.8853 75.1456 27.7918C74.9972 27.6983 74.8117 27.6609 74.6077 27.6609C74.4407 27.6609 74.3109 27.6796 74.2552 27.7357C74.181 27.7918 74.1439 27.8666 74.1068 27.9601C74.0883 28.035 74.0512 28.1472 74.0141 28.2968C73.977 28.4464 73.9399 28.596 73.8843 28.7831C73.8286 28.9701 73.7915 29.1571 73.7359 29.3628C73.6802 29.5686 73.6246 29.7743 73.5689 29.98C73.5133 30.1857 73.4576 30.3728 73.4205 30.5598C73.3649 30.7468 73.3278 30.9151 73.2907 31.0461C73.2536 31.1957 73.235 31.3079 73.2165 31.3827C73.2165 31.4575 73.2165 31.5136 73.2165 31.5323C73.235 31.5697 73.2721 31.5884 73.3092 31.6071L73.4947 31.6445C73.4947 31.6445 73.5689 31.682 73.5874 31.7007C73.606 31.7194 73.6245 31.7381 73.6245 31.7755C73.6245 31.8129 73.6246 31.8503 73.5689 31.869C73.5133 31.8877 73.4947 31.9064 73.4391 31.9064H72.0849C72.0849 31.9064 71.9922 31.9064 71.9736 31.869C71.9551 31.8503 71.9365 31.8129 71.9365 31.7942C71.9365 31.7568 71.9365 31.7194 71.9736 31.7007C71.9922 31.682 72.0293 31.6632 72.0849 31.6445L72.2519 31.6071C72.2519 31.6071 72.3817 31.5697 72.4188 31.5323C72.4559 31.4949 72.493 31.4388 72.5116 31.364C72.5301 31.2892 72.5672 31.177 72.6043 31.0461C72.6414 30.9151 72.6785 30.7468 72.7342 30.5598C72.7898 30.3728 72.8455 30.1857 72.9011 29.98C72.9568 29.7743 73.0124 29.5686 73.0681 29.3628C73.1237 29.1571 73.1794 28.9514 73.2165 28.7644C73.2721 28.5773 73.3092 28.409 73.3463 28.2594C73.3834 28.1098 73.402 27.9976 73.4205 27.9227C73.4205 27.8479 73.4391 27.7918 73.4205 27.7544C73.4205 27.717 73.3649 27.6983 73.3092 27.6796L73.1237 27.6422C73.1237 27.6422 73.0495 27.6048 73.031 27.5861C73.031 27.5674 73.0124 27.5487 73.0124 27.5113C73.0124 27.4739 73.0124 27.4365 73.0681 27.4178C73.1052 27.3991 73.1423 27.3804 73.1979 27.3804H74.719C75.0714 27.3804 75.3497 27.4365 75.5908 27.5674C75.832 27.6983 75.9989 27.8666 76.1102 28.0911C76.2215 28.3155 76.2401 28.5773 76.1844 28.8953C76.1288 29.1384 76.0175 29.3628 75.8505 29.5499C75.6836 29.7369 75.461 29.8865 75.1827 29.9987C74.9045 30.1109 74.6077 30.167 74.2552 30.167C74.0326 30.167 73.8471 30.167 73.6988 30.1109C73.5504 30.0548 73.3834 30.0174 73.2721 29.9426V29.9613ZM74.2367 30.1483L74.8859 30.0361L75.2198 31.1022C75.2569 31.2144 75.2755 31.2892 75.3126 31.364C75.3497 31.4201 75.3868 31.4575 75.4053 31.4949C75.4239 31.5323 75.4795 31.5323 75.5166 31.5323C75.5537 31.5323 75.5908 31.5323 75.6279 31.4949C75.665 31.4762 75.7021 31.4388 75.7207 31.4014C75.7207 31.4014 75.7578 31.364 75.7763 31.364C75.7949 31.364 75.832 31.364 75.8505 31.364C75.8876 31.364 75.9062 31.4014 75.9062 31.4201C75.9062 31.4575 75.9062 31.4949 75.9062 31.5323C75.8505 31.6632 75.7578 31.7755 75.6094 31.869C75.461 31.9625 75.3311 31.9999 75.1456 31.9999C75.0529 31.9999 74.9787 31.9999 74.9045 31.9438C74.8303 31.9064 74.7746 31.8503 74.719 31.7568C74.6633 31.6632 74.6077 31.551 74.5706 31.3827L74.2181 30.1483H74.2367Z" fill="white"/>
<path d="M83.2701 31.9813C83.0846 31.9813 82.9362 31.9813 82.8064 31.9252C82.6765 31.8878 82.5838 31.8504 82.5096 31.813C82.4354 31.7756 82.3797 31.7195 82.3426 31.6821C82.3055 31.6447 82.2684 31.626 82.2499 31.626C82.2313 31.626 82.1942 31.626 82.1757 31.6821C82.1386 31.7195 82.12 31.7569 82.0829 31.7943C82.0458 31.8317 82.0087 31.8691 81.9902 31.9065C81.9531 31.9439 81.916 31.9626 81.8974 31.9626C81.8418 31.9626 81.8047 31.9626 81.7861 31.9252C81.7676 31.8878 81.749 31.8504 81.749 31.7943L81.8789 30.6909C81.8789 30.6909 81.8974 30.5786 81.9345 30.5599C81.9716 30.5412 81.9902 30.5225 82.0458 30.5225C82.1015 30.5225 82.12 30.5225 82.1571 30.5599C82.1757 30.5974 82.2128 30.6348 82.2313 30.6909L82.2684 30.9714C82.287 31.2332 82.3983 31.4203 82.5652 31.5512C82.7322 31.6821 82.9362 31.7569 83.1774 31.7569C83.3258 31.7569 83.4741 31.7195 83.604 31.6634C83.7338 31.6073 83.8266 31.5325 83.9008 31.4203C83.975 31.308 84.0306 31.1958 84.0492 31.0462C84.0863 30.8592 84.0492 30.6722 83.9564 30.5038C83.8637 30.3355 83.6782 30.1672 83.3814 29.9802C83.0661 29.7744 82.8435 29.5687 82.6951 29.363C82.5652 29.1573 82.5096 28.9141 82.5467 28.6336C82.5652 28.4092 82.658 28.2034 82.7878 28.0164C82.9177 27.8294 83.1032 27.6611 83.3443 27.5488C83.5854 27.4366 83.8637 27.3618 84.1976 27.3618C84.4758 27.3618 84.717 27.3992 84.921 27.4927C85.1251 27.5862 85.2735 27.6985 85.3662 27.8481C85.459 27.9977 85.5146 28.1473 85.5146 28.3156C85.5146 28.4092 85.4775 28.5027 85.4404 28.5588C85.3848 28.6149 85.3291 28.6523 85.2364 28.6523C85.1622 28.6523 85.1065 28.6336 85.0509 28.5962C85.0138 28.5588 84.9767 28.484 84.9396 28.4092L84.8839 28.1847C84.8283 27.979 84.7541 27.8481 84.6242 27.7359C84.4944 27.6424 84.346 27.5862 84.1605 27.5862C83.975 27.5862 83.8266 27.6237 83.6782 27.6985C83.5484 27.7733 83.4371 27.8668 83.3443 27.979C83.2701 28.0912 83.2145 28.2221 83.1959 28.3718C83.1588 28.5775 83.1959 28.7645 83.3072 28.9328C83.4185 29.1012 83.604 29.2882 83.8822 29.4752C84.1234 29.6435 84.3089 29.7931 84.4387 29.9428C84.5686 30.0924 84.6613 30.2233 84.6984 30.3729C84.7355 30.5225 84.7541 30.6722 84.7355 30.8592C84.717 31.0836 84.6428 31.2893 84.5129 31.4577C84.3831 31.626 84.2161 31.7569 84.0121 31.8504C83.808 31.9439 83.5669 32 83.3072 32L83.2701 31.9813Z" fill="white"/>
<path d="M89.9475 30.7465L89.7063 30.8961L91.6912 27.6606C91.6912 27.6606 91.8025 27.511 91.8767 27.4736C91.9509 27.4362 92.0065 27.4175 92.0807 27.4175H92.7299C92.7299 27.4175 92.8227 27.4175 92.8598 27.4549C92.8969 27.4923 92.8969 27.511 92.8969 27.5484C92.8969 27.5858 92.8969 27.6232 92.8598 27.6419C92.8412 27.6606 92.8041 27.6793 92.767 27.6793L92.5815 27.7167C92.5815 27.7167 92.4888 27.7541 92.4517 27.7915C92.4146 27.8289 92.396 27.885 92.3775 27.9412C92.3775 28.0347 92.3404 28.1656 92.3033 28.3339C92.2662 28.5022 92.2476 28.6518 92.2105 28.8389C92.1734 29.0259 92.1364 29.2129 92.0993 29.4186C92.0622 29.6244 92.0251 29.8114 91.988 30.0171C91.9509 30.2229 91.9138 30.4099 91.8767 30.5782C91.8396 30.7652 91.821 30.9149 91.7839 31.0458C91.7468 31.1767 91.7468 31.2889 91.7283 31.3824C91.7283 31.4385 91.7283 31.4946 91.7283 31.532C91.7283 31.5694 91.7839 31.6068 91.8396 31.6068L92.0436 31.663C92.0436 31.663 92.0993 31.6817 92.1178 31.7004C92.1364 31.7191 92.1363 31.7378 92.1363 31.7752C92.1363 31.8126 92.1363 31.85 92.0807 31.8687C92.0251 31.8874 92.0065 31.9061 91.9509 31.9061H90.6153C90.6153 31.9061 90.5225 31.9061 90.4854 31.8687C90.4483 31.8313 90.4483 31.8126 90.4483 31.7752C90.4483 31.7378 90.4669 31.7004 90.504 31.6817C90.5225 31.663 90.5596 31.6442 90.5967 31.6442L90.8008 31.6068C90.8008 31.6068 90.9121 31.5694 90.9492 31.532C90.9863 31.4946 91.0234 31.4385 91.0234 31.3637C91.0419 31.2328 91.079 31.1019 91.0976 30.9336C91.1347 30.7652 91.1718 30.5969 91.1903 30.4099C91.2274 30.2229 91.2645 30.0358 91.3016 29.8301C91.3387 29.6244 91.3758 29.4186 91.4129 29.2316C91.45 29.0259 91.4871 28.8389 91.5242 28.6331C91.5613 28.4461 91.5799 28.2591 91.617 28.0908H91.7097L89.8176 31.2141C89.762 31.2889 89.7063 31.345 89.6692 31.3824C89.6321 31.4198 89.5765 31.4198 89.5208 31.4198C89.4652 31.4198 89.4281 31.4011 89.391 31.3637C89.3539 31.3263 89.3353 31.2702 89.3168 31.2141C89.2982 31.0645 89.2611 30.8961 89.2426 30.7278C89.224 30.5595 89.1869 30.3912 89.1684 30.2042C89.1498 30.0171 89.1127 29.8488 89.0942 29.6618C89.0571 29.4748 89.0385 29.3064 89.0014 29.1194C88.9643 28.9324 88.9458 28.7641 88.9087 28.5957C88.8901 28.4274 88.853 28.2591 88.8159 28.0908H88.9458L88.0183 31.2328C87.9812 31.345 87.9812 31.4385 88.0183 31.4946C88.0369 31.5507 88.0925 31.6068 88.1667 31.6255L88.3522 31.6817C88.3522 31.6817 88.4635 31.7565 88.445 31.7939C88.445 31.8313 88.4264 31.8687 88.3893 31.8874C88.3522 31.9061 88.2966 31.9248 88.2409 31.9248H87.2578C87.2578 31.9248 87.1465 31.9248 87.1279 31.8874C87.1094 31.8687 87.0908 31.8313 87.0908 31.7939C87.0908 31.7565 87.0908 31.7191 87.1279 31.7004C87.1465 31.6817 87.1836 31.663 87.2392 31.6442L87.3876 31.6068C87.3876 31.6068 87.4989 31.5694 87.536 31.532C87.5731 31.4946 87.6102 31.4385 87.6473 31.3824C87.6844 31.3076 87.7215 31.2141 87.7586 31.0832L88.649 28.016C88.649 28.016 88.6861 27.8663 88.649 27.8289C88.649 27.7915 88.5933 27.7541 88.5377 27.7354L88.3151 27.6793C88.3151 27.6793 88.2595 27.6419 88.2409 27.6232C88.2409 27.6232 88.2224 27.5858 88.2224 27.5484C88.2224 27.511 88.2409 27.4736 88.278 27.4549C88.3151 27.4362 88.3522 27.4175 88.4079 27.4175H89.0756C89.0756 27.4175 89.224 27.4362 89.2797 27.4923C89.3353 27.5484 89.3724 27.6232 89.391 27.7354C89.4095 27.885 89.4466 28.0347 89.4652 28.203C89.4837 28.3713 89.5208 28.5209 89.5394 28.6893C89.5579 28.8576 89.595 29.0259 89.6136 29.1942C89.6321 29.3625 89.6692 29.5496 89.6878 29.7179C89.7249 29.8862 89.7434 30.0732 89.7805 30.2416C89.8176 30.4099 89.8362 30.5782 89.8733 30.7652L89.9475 30.7465Z" fill="white"/>
<path d="M95.365 31.1209C95.2908 31.2518 95.2537 31.364 95.2722 31.4575C95.2722 31.551 95.3464 31.6071 95.4206 31.6258L95.5876 31.6632C95.5876 31.6632 95.6618 31.7006 95.6618 31.7194C95.6618 31.7381 95.6803 31.7568 95.6803 31.7942C95.6803 31.8316 95.6803 31.869 95.6432 31.8877C95.6061 31.9064 95.569 31.9251 95.5134 31.9251H94.5488C94.5488 31.9251 94.4375 31.9251 94.4189 31.8877C94.3818 31.869 94.3818 31.8316 94.3818 31.7942C94.3818 31.7568 94.3818 31.7194 94.4189 31.7007C94.4375 31.6819 94.4931 31.6445 94.5673 31.6258C94.6415 31.6071 94.7157 31.551 94.8085 31.4575C94.8827 31.364 94.9754 31.2518 95.0496 31.1209L96.7006 28.409C96.9417 28.0537 97.1828 27.7918 97.424 27.6235C97.6651 27.4552 97.8877 27.3804 98.1289 27.3804C98.2031 27.3804 98.2773 27.3804 98.3144 27.4178C98.3515 27.4552 98.37 27.4739 98.37 27.5113C98.37 27.5487 98.37 27.5674 98.3515 27.5861C98.3515 27.6048 98.2958 27.6235 98.2587 27.6422C98.1845 27.6609 98.1103 27.6983 98.0732 27.7731C98.0176 27.8292 97.999 27.9414 97.999 28.0537C97.999 28.1285 97.999 28.2407 97.999 28.3903C97.999 28.5212 97.999 28.6895 97.999 28.8766C97.999 29.0636 97.999 29.2506 97.999 29.4376C97.999 29.6247 97.999 29.8304 97.999 30.0361C97.999 30.2419 97.999 30.4102 97.999 30.5972C97.999 30.7655 97.999 30.9338 97.999 31.0648V31.364C97.999 31.364 97.999 31.4762 98.0176 31.5323C98.0176 31.5697 98.0732 31.6071 98.1103 31.6445C98.1474 31.6632 98.2031 31.7006 98.2773 31.7194C98.3515 31.7381 98.37 31.7755 98.37 31.8316C98.37 31.869 98.37 31.9064 98.3329 31.9251C98.2958 31.9438 98.2587 31.9625 98.2031 31.9625H96.9046C96.9046 31.9625 96.8304 31.9625 96.7933 31.9251C96.7562 31.8877 96.7562 31.869 96.7562 31.8503C96.7562 31.8316 96.7562 31.7942 96.7933 31.7755C96.8119 31.7568 96.8489 31.7381 96.886 31.7194L97.1086 31.6632C97.1086 31.6632 97.2199 31.6071 97.257 31.5697C97.2941 31.5136 97.3127 31.4575 97.3127 31.3827C97.3127 31.3079 97.3127 31.1957 97.3127 31.0461C97.3127 30.9151 97.3127 30.7468 97.3127 30.5598C97.3127 30.3728 97.3127 30.1857 97.3127 29.9987C97.3127 29.8117 97.3127 29.5873 97.3127 29.4002C97.3127 29.2132 97.3127 29.0075 97.3127 28.8205C97.3127 28.6334 97.3127 28.4651 97.3127 28.3155C97.3127 28.1659 97.3127 28.0537 97.3127 27.9601L97.4611 28.0163C97.4611 28.0163 97.3869 28.0724 97.3312 28.1285C97.2756 28.1846 97.2199 28.2407 97.1457 28.3155C97.0715 28.3903 96.9973 28.5025 96.9231 28.6147L95.365 31.2144V31.1209ZM95.6061 30.4289L95.6803 30.2044H97.4796V30.4289H95.6061Z" fill="white"/>
<path d="M101.987 29.9613L102.172 29.7743C102.172 29.7743 102.376 29.8678 102.488 29.9052C102.618 29.9426 102.747 29.9613 102.896 29.9613C103.137 29.9613 103.36 29.9239 103.545 29.8304C103.731 29.7369 103.879 29.606 103.99 29.4376C104.102 29.2693 104.176 29.0636 104.213 28.8392C104.269 28.5773 104.25 28.3529 104.194 28.1846C104.12 28.0163 104.027 27.8853 103.86 27.7918C103.712 27.6983 103.527 27.6609 103.323 27.6609C103.156 27.6609 103.026 27.6796 102.97 27.7357C102.896 27.7918 102.859 27.8666 102.822 27.9601C102.803 28.035 102.766 28.1472 102.729 28.2968C102.692 28.4464 102.655 28.596 102.599 28.7831C102.543 28.9701 102.506 29.1571 102.451 29.3628C102.395 29.5686 102.339 29.7743 102.284 29.98C102.228 30.1857 102.172 30.3728 102.135 30.5598C102.08 30.7468 102.043 30.9151 102.006 31.0461C101.968 31.1957 101.95 31.3079 101.931 31.3827C101.931 31.4575 101.931 31.5136 101.931 31.5323C101.95 31.5697 101.987 31.5884 102.024 31.6071L102.21 31.6445C102.21 31.6445 102.284 31.682 102.302 31.7007C102.321 31.7194 102.339 31.7381 102.339 31.7755C102.339 31.8129 102.339 31.8503 102.284 31.869C102.228 31.8877 102.21 31.9064 102.154 31.9064H100.8C100.8 31.9064 100.707 31.9064 100.688 31.869C100.67 31.8503 100.651 31.8129 100.651 31.7942C100.651 31.7568 100.651 31.7194 100.688 31.7007C100.707 31.682 100.744 31.6632 100.8 31.6445L100.967 31.6071C100.967 31.6071 101.097 31.5697 101.134 31.5323C101.171 31.4949 101.208 31.4388 101.226 31.364C101.245 31.2892 101.282 31.177 101.319 31.0461C101.356 30.9151 101.393 30.7468 101.449 30.5598C101.505 30.3728 101.56 30.1857 101.616 29.98C101.672 29.7743 101.727 29.5686 101.783 29.3628C101.839 29.1571 101.894 28.9514 101.931 28.7644C101.987 28.5773 102.024 28.409 102.061 28.2594C102.098 28.1098 102.117 27.9976 102.135 27.9227C102.135 27.8479 102.154 27.7918 102.135 27.7544C102.135 27.717 102.08 27.6983 102.024 27.6796L101.839 27.6422C101.839 27.6422 101.764 27.6048 101.746 27.5861C101.746 27.5674 101.727 27.5487 101.727 27.5113C101.727 27.4739 101.727 27.4365 101.783 27.4178C101.82 27.3991 101.857 27.3804 101.913 27.3804H103.434C103.786 27.3804 104.065 27.4365 104.306 27.5674C104.547 27.6983 104.714 27.8666 104.825 28.0911C104.936 28.3155 104.955 28.5773 104.899 28.8953C104.844 29.1384 104.732 29.3628 104.565 29.5499C104.398 29.7369 104.176 29.8865 103.898 29.9987C103.619 30.1109 103.323 30.167 102.97 30.167C102.747 30.167 102.562 30.167 102.414 30.1109C102.265 30.0548 102.098 30.0174 101.987 29.9426V29.9613ZM102.97 30.1483L103.619 30.0361L103.953 31.1022C103.99 31.2144 104.009 31.2892 104.046 31.364C104.083 31.4201 104.12 31.4575 104.139 31.4949C104.157 31.5323 104.213 31.5323 104.25 31.5323C104.287 31.5323 104.324 31.5323 104.361 31.4949C104.398 31.4762 104.436 31.4388 104.454 31.4014C104.454 31.4014 104.491 31.364 104.51 31.364C104.528 31.364 104.565 31.364 104.584 31.364C104.621 31.364 104.64 31.4014 104.64 31.4201C104.64 31.4575 104.64 31.4949 104.64 31.5323C104.584 31.6632 104.491 31.7755 104.343 31.869C104.194 31.9625 104.065 31.9999 103.879 31.9999C103.786 31.9999 103.712 31.9999 103.638 31.9438C103.564 31.9064 103.508 31.8503 103.452 31.7568C103.397 31.6632 103.341 31.551 103.304 31.3827L102.952 30.1483H102.97Z" fill="white"/>
<path d="M108.646 27.3428C108.757 27.3428 108.887 27.3428 109.036 27.3803C109.184 27.399 109.332 27.4364 109.481 27.4551C109.629 27.4925 109.778 27.5112 109.926 27.5486C110.074 27.586 110.204 27.6047 110.316 27.6234C110.427 27.6421 110.52 27.6608 110.594 27.6608C110.668 27.6608 110.742 27.6608 110.779 27.6234C110.816 27.6047 110.854 27.5673 110.872 27.5112C110.872 27.4738 110.891 27.4364 110.891 27.399C110.891 27.3615 110.891 27.3241 110.891 27.2867C110.891 27.2119 110.928 27.1558 110.983 27.0997C111.039 27.0436 111.095 27.0249 111.187 27.0249C111.262 27.0249 111.336 27.0436 111.373 27.0997C111.429 27.1558 111.447 27.2493 111.447 27.3615C111.447 27.5486 111.373 27.6982 111.262 27.7917C111.132 27.9039 110.965 27.96 110.761 27.96C110.668 27.96 110.557 27.96 110.408 27.9226C110.279 27.9039 110.13 27.8665 109.963 27.8291C109.815 27.7917 109.648 27.7543 109.481 27.7169C109.314 27.6795 109.166 27.6421 109.036 27.6234C108.887 27.6047 108.776 27.586 108.683 27.586C108.498 27.586 108.368 27.6234 108.294 27.6795C108.22 27.7356 108.182 27.8291 108.164 27.9226C108.164 27.9787 108.164 28.0161 108.164 28.0535C108.164 28.0909 108.201 28.1284 108.201 28.1658C108.201 28.2032 108.22 28.2406 108.22 28.2967C108.22 28.3715 108.201 28.4276 108.145 28.4837C108.09 28.5398 108.015 28.5585 107.923 28.5585C107.83 28.5585 107.737 28.5211 107.682 28.4463C107.626 28.3715 107.589 28.2593 107.607 28.1284C107.607 27.9787 107.644 27.8478 107.737 27.7356C107.83 27.6234 107.923 27.5299 108.071 27.4551C108.22 27.3803 108.405 27.3615 108.628 27.3615L108.646 27.3428ZM108.962 31.4387C108.962 31.4387 108.962 31.5322 108.962 31.5696C108.98 31.607 109.017 31.6257 109.054 31.6257L109.295 31.6818C109.295 31.6818 109.407 31.7566 109.407 31.794C109.407 31.8314 109.388 31.8689 109.351 31.8876C109.314 31.9063 109.277 31.925 109.221 31.925H107.849C107.849 31.925 107.756 31.925 107.719 31.8876C107.7 31.8689 107.682 31.8314 107.682 31.8127C107.682 31.7753 107.682 31.7379 107.719 31.7192C107.737 31.7005 107.774 31.6818 107.83 31.6631L108.053 31.6257C108.053 31.6257 108.145 31.5883 108.182 31.5509C108.22 31.5135 108.238 31.4574 108.275 31.3826C108.312 31.2891 108.349 31.1582 108.386 31.0085C108.424 30.8589 108.479 30.6719 108.535 30.4662C108.591 30.2604 108.646 30.0547 108.72 29.8303C108.776 29.6058 108.85 29.3814 108.906 29.157C108.961 28.9326 109.017 28.7081 109.073 28.5024C109.128 28.2967 109.184 28.1096 109.221 27.9413C109.277 27.773 109.295 27.6421 109.332 27.5486L110 27.6795C109.963 27.773 109.926 27.9226 109.889 28.0909C109.852 28.2593 109.796 28.4463 109.741 28.652C109.685 28.8577 109.629 29.0822 109.574 29.3066C109.518 29.531 109.444 29.7555 109.388 29.9799C109.332 30.2043 109.277 30.4101 109.221 30.6158C109.166 30.8215 109.128 30.9898 109.073 31.1395C109.036 31.2891 108.999 31.4013 108.98 31.4948L108.962 31.4387Z" fill="white"/>
</g>
</g>
<defs>
<linearGradient id="paint0_linear_0_1" x1="180.17" y1="1003" x2="-331.406" y2="837.303" gradientUnits="userSpaceOnUse">
<stop/>
<stop offset="0.741791" stop-color="#8E97B4"/>
</linearGradient>
<clipPath id="clip0_0_1">
<rect width="375" height="8530" fill="white" transform="translate(-28 -7590)"/>
</clipPath>
<clipPath id="clip1_0_1">
<rect width="143" height="32" fill="white"/>
</clipPath>
</defs>
</svg>
