<svg width="220" height="48" viewBox="0 0 220 48" fill="none" xmlns="http://www.w3.org/2000/svg">
<g clip-path="url(#clip0_2_1169)">
<path d="M158.786 6.55635V5.69147H170.572V6.55635H158.786ZM166.12 26.1417C164.893 26.1417 163.98 25.8627 163.352 25.3326C162.724 24.8026 162.325 24.133 162.097 23.3518C161.868 22.5427 161.783 21.7615 161.783 20.9524V1.31127C162.468 1.31127 163.181 1.17177 163.952 0.89278C164.722 0.613786 165.35 0.306893 165.778 0V21.9847C165.778 23.0728 165.921 23.7982 166.177 24.1609C166.434 24.5236 166.891 24.7189 167.547 24.7189C168.261 24.7189 168.917 24.412 169.574 23.7982C170.23 23.1844 170.744 22.4869 171.143 21.7057L171.885 22.1521C171.286 23.3239 170.544 24.3004 169.602 25.0257C168.689 25.7511 167.519 26.1138 166.092 26.1138L166.12 26.1417Z" fill="white"/>
<path d="M0 7.05846L0.171228 6.22148H11.7577L11.5865 7.05846H0ZM3.53872 26.2811C2.34012 26.2811 1.48398 26.03 0.970295 25.5C0.456609 24.9699 0.171228 24.3282 0.114152 23.547C0.0570761 22.7658 0.114152 21.9846 0.256843 21.2034L3.93825 1.95287C4.59463 1.95287 5.33662 1.81338 6.13569 1.53438C6.96329 1.25539 7.61967 0.976394 8.10481 0.641602L3.96679 22.1799C3.76703 23.2401 3.76703 23.9655 3.96679 24.3282C4.16656 24.6909 4.56609 24.8583 5.19393 24.8583C5.87884 24.8583 6.5923 24.5514 7.36282 23.9655C8.10481 23.3517 8.76119 22.6821 9.30341 21.9288L9.93125 22.3752C9.13218 23.547 8.19043 24.4677 7.16306 25.1931C6.13569 25.9184 4.90855 26.2532 3.51018 26.2532L3.53872 26.2811Z" fill="white"/>
<path d="M78.68 8.92795C78.5658 7.95148 78.1663 7.19819 77.4243 6.6402C76.6823 6.08222 75.4552 5.80322 73.7714 5.80322C72.2304 5.80322 70.8606 6.16591 69.6905 6.9192C68.5204 7.64458 67.5216 8.59316 66.7225 9.70914C66.0662 10.6019 65.5239 11.5505 65.0673 12.4991L66.2659 6.22171H62.2706L58.6748 25.9745H62.4704L64.4395 15.7912C64.6393 15.01 64.9246 14.2009 65.2956 13.3361C65.7808 12.248 66.3801 11.2157 67.1506 10.2392C67.8926 9.26275 68.7773 8.45366 69.7476 7.81198C70.7464 7.17029 71.8309 6.8634 73.0009 6.8634C73.8 6.8634 74.3422 7.11449 74.6276 7.61668C74.913 8.11887 75.0271 8.84426 74.9415 9.73704C74.8844 10.6577 74.7132 11.69 74.4849 12.8897L71.8594 25.9466H75.6835L78.4802 12.2201C78.7371 10.9646 78.7941 9.87653 78.68 8.90005V8.92795Z" fill="white"/>
<path d="M109.129 6.22119L105.419 25.974H109.329L113.238 6.22119H109.129Z" fill="white"/>
<path d="M122.142 7.05846L122.313 6.22148H133.9L133.729 7.05846H122.142ZM125.538 26.2811C124.34 26.2811 123.483 26.03 122.97 25.5C122.456 24.9699 122.171 24.3282 122.114 23.547C122.057 22.7658 122.114 21.9846 122.256 21.2034L126.052 1.95287C126.708 1.95287 127.45 1.81338 128.278 1.53438C129.105 1.25539 129.762 0.976394 130.247 0.641602L125.995 22.1799C125.795 23.2401 125.767 23.9655 125.966 24.3282C126.166 24.6909 126.566 24.8583 127.193 24.8583C127.878 24.8583 128.592 24.5514 129.362 23.9655C130.104 23.3517 130.761 22.6821 131.303 21.9288L131.931 22.3752C131.103 23.547 130.19 24.4677 129.134 25.1931C128.107 25.9184 126.88 26.2532 125.481 26.2532L125.538 26.2811Z" fill="white"/>
<path d="M30.0221 7.58867L30.2504 6.61219C26.9971 8.06295 24.5999 11.383 24.1718 12.3316L25.3704 6.0542H21.3751L17.7793 25.807H21.5749L23.544 15.6237C23.7438 14.8425 23.9721 14.0055 24.4001 13.1685C25.77 10.4065 29.5084 7.75606 30.0221 7.58867Z" fill="white"/>
<path d="M97.2575 15.2052C96.4299 14.7031 95.5167 14.2846 94.5464 13.9498C93.5761 13.5871 92.6628 13.2523 91.8067 12.8896C90.9506 12.5269 90.2656 12.1084 89.7805 11.6062C89.2954 11.104 89.1241 10.4624 89.2668 9.68117C89.381 9.06738 89.6664 8.5373 90.0944 8.09091C90.5225 7.64452 91.0647 7.30972 91.6926 7.05863C92.3204 6.83543 92.9768 6.69594 93.6617 6.69594C94.8888 6.69594 95.9162 6.94703 96.7438 7.44922C97.5429 7.92351 98.1422 8.5094 98.5417 9.23478L98.9412 8.1467C98.6558 7.75611 98.399 7.56082 98.399 7.56082C97.8853 7.03073 97.2289 6.61224 96.4584 6.30534C95.6879 5.99845 94.8032 5.83105 93.8044 5.83105C92.4345 5.83105 91.2359 6.11005 90.2371 6.66804C89.2383 7.22602 88.4392 7.92351 87.8685 8.76049C87.2692 9.62537 86.8982 10.4903 86.7269 11.4109C86.4701 12.6664 86.5557 13.6708 86.9838 14.4241C87.3833 15.1773 88.0111 15.7911 88.7817 16.2654C89.5807 16.7118 90.4369 17.1024 91.3501 17.4372C92.2918 17.772 93.148 18.0789 93.9756 18.4137C94.7747 18.7485 95.431 19.1949 95.8876 19.7249C96.3443 20.255 96.487 20.9804 96.3157 21.8732C96.1445 22.7102 95.802 23.3798 95.2313 23.9099C94.6605 24.4399 94.0041 24.8305 93.2336 25.1095C92.4631 25.3606 91.664 25.5001 90.8364 25.5001C89.752 25.5001 88.7817 25.249 87.9541 24.7747C87.1265 24.3004 86.4415 23.6309 85.9849 22.8218C85.6996 22.3196 85.4998 21.7616 85.3856 21.1757L85.0146 22.8497C85.4998 23.882 86.0991 24.4957 86.0991 24.4957C86.6984 25.0816 87.4118 25.5559 88.2394 25.8907C89.0671 26.2255 90.0088 26.3929 91.0076 26.3929C92.3775 26.3929 93.6617 26.1418 94.8603 25.6117C96.0589 25.0816 97.0577 24.3283 97.8853 23.3798C98.7129 22.4312 99.2551 21.3152 99.512 20.0318C99.7403 18.8322 99.6547 17.8557 99.1981 17.1024C98.77 16.3491 98.1422 15.7074 97.286 15.2052H97.2575Z" fill="white"/>
<path d="M52.795 9.17937C52.6523 8.09129 52.1671 7.19851 51.2824 6.50103C50.4263 5.80354 48.9709 5.46875 46.9447 5.46875C46.488 5.46875 46.0029 5.49665 45.5463 5.55245V5.49665C44.6901 5.60825 43.8911 5.74774 43.0635 5.94304C42.2359 6.13834 41.4368 6.33363 40.6377 6.64052L40.809 7.14271C42.35 6.66842 44.0052 6.47313 45.6319 6.33363C45.6319 6.33363 45.8887 6.33363 46.0314 6.33363C47.2015 6.33363 48.0006 6.64052 48.4572 7.25431C48.9138 7.8681 49.1135 8.64928 49.1135 9.59786C49.1135 10.5464 48.9994 11.5508 48.7996 12.611L48.4001 14.6755H45.4607C42.35 14.6755 39.8387 15.2335 37.9552 16.3495C36.0716 17.4655 34.9301 18.9721 34.5591 20.925C34.2452 22.5711 34.5591 23.8823 35.5009 24.8588C36.4426 25.8353 37.8695 26.3096 39.7816 26.3096C41.2656 26.3096 42.6069 25.9469 43.7484 25.2494C44.9184 24.5519 45.8887 23.5476 46.6593 22.2921C46.8305 22.0131 46.9732 21.7341 47.1159 21.4551C47.1159 21.4551 46.6307 23.8823 46.2312 25.8632H50.1124C50.3692 24.524 50.569 23.4639 50.5975 23.3244L52.6523 12.611C52.8806 11.4392 52.9376 10.2953 52.795 9.20727V9.17937ZM47.8008 17.8561C47.4869 19.4463 47.0017 20.7576 46.2883 21.8178C45.5748 22.878 44.8043 23.6591 43.9196 24.1892C43.0635 24.7193 42.2073 24.9704 41.3797 24.9704C40.6092 24.9704 40.0384 24.7472 39.6389 24.3287C39.2394 23.9102 38.9825 23.3523 38.8684 22.6827C38.7828 22.0131 38.7828 21.3156 38.9255 20.5902C39.0681 19.7811 39.4106 19 39.9243 18.1909C40.438 17.3818 41.1514 16.7401 42.0361 16.1821C42.9208 15.652 44.0052 15.373 45.318 15.373H48.2574L47.7723 17.8561H47.8008Z" fill="white"/>
<path d="M150.481 15.3449C149.596 14.7311 148.655 14.201 147.627 13.7267C146.6 13.2524 145.658 12.7782 144.745 12.3318C143.832 11.8575 143.118 11.3553 142.576 10.7973C142.034 10.2393 141.805 9.54182 141.92 8.76064C141.977 8.14685 142.233 7.61677 142.633 7.19828C143.033 6.77978 143.546 6.50079 144.174 6.3055C144.802 6.1381 145.458 6.0823 146.143 6.166C147.37 6.3055 148.426 6.66819 149.339 7.28197C149.796 7.58887 150.196 7.92366 150.538 8.28635L150.966 7.47727C149.967 6.47289 148.94 6.0265 148.94 6.0265C148.141 5.60801 147.228 5.35692 146.2 5.24532C144.802 5.10582 143.632 5.24532 142.662 5.71961C141.691 6.1939 140.949 6.80768 140.436 7.64467C139.893 8.45375 139.579 9.34653 139.494 10.2672C139.351 11.5227 139.494 12.5829 140.008 13.4198C140.493 14.2568 141.149 14.9543 141.977 15.5123C142.804 16.0703 143.717 16.5725 144.688 17.0189C145.658 17.4653 146.571 17.8837 147.427 18.3301C148.284 18.7765 148.968 19.2787 149.482 19.8925C149.996 20.4784 150.196 21.2596 150.081 22.1523C149.996 22.9893 149.682 23.6589 149.168 24.1611C148.655 24.6633 147.998 24.9981 147.228 25.1655C146.457 25.3329 145.658 25.3887 144.83 25.305C143.746 25.1934 142.747 24.8307 141.834 24.2169C140.949 23.631 140.207 22.8777 139.665 21.985C139.637 21.9292 139.608 21.8734 139.579 21.8176L138.895 22.3755C139.18 22.8498 139.494 23.3241 139.95 23.7147C140.607 24.3843 141.349 24.9423 142.233 25.3887C143.118 25.8351 144.06 26.1141 145.087 26.2257C146.486 26.3652 147.77 26.2257 148.911 25.8351C150.081 25.4166 151.023 24.747 151.794 23.8542C152.564 22.9614 152.992 21.8455 153.135 20.5621C153.278 19.3624 153.078 18.3301 152.593 17.4931C152.079 16.6562 151.394 15.9308 150.51 15.317L150.481 15.3449Z" fill="white"/>
<path d="M220.001 6.08252H218.831L212.153 21.3714L204.533 6.08252H199.653L209.927 26.1143C208.357 30.1597 205.532 37.0508 201.28 38.669L201.68 39.5897C206.588 37.9157 209.385 30.2992 211.382 25.8074H211.325L219.972 6.08252H220.001Z" fill="white"/>
<path d="M192.147 9.09503C191.804 8.00695 191.119 7.11417 190.092 6.38879C189.065 5.66341 187.524 5.32861 185.469 5.32861C184.442 5.32861 183.471 5.44021 182.501 5.63551C181.531 5.8587 180.675 6.1377 179.904 6.52829C179.39 6.77938 178.962 7.05838 178.62 7.39317V9.01133C178.705 8.70444 178.877 8.45334 179.076 8.20225C179.476 7.75586 179.961 7.36527 180.589 7.08627C181.217 6.77938 181.873 6.55619 182.615 6.41669C183.329 6.27719 184.042 6.19349 184.698 6.19349C185.897 6.19349 186.782 6.50039 187.352 7.11417C187.923 7.72796 188.294 8.50914 188.494 9.48562C188.665 10.4621 188.751 11.4665 188.751 12.4988V14.5912H185.754C182.587 14.5912 180.132 15.1492 178.42 16.2652C176.708 17.3811 175.852 18.9156 175.852 20.8686C175.852 22.5425 176.422 23.8538 177.592 24.8303C178.762 25.8068 180.304 26.2811 182.244 26.2811C183.757 26.2811 185.041 25.9184 186.097 25.2209C187.153 24.4955 187.923 23.519 188.494 22.2356C188.608 21.9566 188.694 21.6777 188.808 21.3987V26.3927C188.637 26.2253 192.004 26.2811 192.718 26.2811V12.4988C192.718 11.327 192.546 10.1831 192.204 9.09503H192.147ZM188.722 17.8275C188.722 19.4178 188.465 20.757 187.952 21.8172C187.438 22.8773 186.782 23.6864 186.011 24.2165C185.241 24.7466 184.413 24.9977 183.585 24.9977C182.815 24.9977 182.158 24.7745 181.673 24.356C181.16 23.9375 180.817 23.3795 180.589 22.682C180.361 22.0124 180.246 21.2871 180.246 20.5617C180.246 19.7526 180.446 18.9435 180.817 18.1623C181.188 17.3533 181.787 16.6837 182.587 16.1536C183.386 15.6235 184.442 15.3445 185.754 15.3445H188.751V17.8275H188.722Z" fill="white"/>
<path d="M46.9741 47.4294C46.9741 47.4294 46.9741 47.3457 47.0311 47.2899C47.0882 47.2341 47.1168 47.2341 47.2024 47.2062L47.4878 47.1504C47.4878 47.1504 47.6019 47.1225 47.6304 47.0946C47.6875 47.0667 47.7161 47.0109 47.7731 46.9551C47.8017 46.8993 47.8587 46.7877 47.8873 46.6761C47.9158 46.5366 47.9729 46.3692 48.03 46.146C48.0871 45.9228 48.1441 45.6717 48.2297 45.4207C48.3154 45.1417 48.3724 44.8627 48.458 44.5837C48.5437 44.2768 48.6293 43.9978 48.7149 43.6909C48.8005 43.4119 48.8861 43.1329 48.9432 42.8539C49.0003 42.6028 49.0859 42.3517 49.1144 42.1564C49.1715 41.9611 49.2 41.7937 49.2286 41.6542C49.2286 41.5426 49.2286 41.4868 49.2286 41.431C49.2286 41.3752 49.143 41.3473 49.0573 41.3194L48.8005 41.2636C48.8005 41.2636 48.6578 41.2078 48.6293 41.1799C48.6007 41.1799 48.5722 41.1241 48.5722 41.0683C48.5722 41.0125 48.5722 40.9567 48.6578 40.9288C48.7149 40.9009 48.772 40.873 48.8861 40.873H51.2833C51.7399 40.873 52.168 40.9567 52.539 41.0962C52.91 41.2357 53.2239 41.4868 53.4807 41.7658C53.7376 42.0448 53.9088 42.4075 54.023 42.826C54.1371 43.2445 54.1371 43.6909 54.023 44.1931C53.9374 44.7232 53.7661 45.1975 53.5093 45.6159C53.2524 46.0344 52.9385 46.3971 52.5675 46.6761C52.1965 46.9551 51.7685 47.1783 51.2833 47.3457C50.7982 47.4852 50.2845 47.5689 49.7423 47.5689H47.1453C47.1453 47.5689 47.0026 47.5689 46.9741 47.5131C46.9455 47.4852 46.917 47.4294 46.917 47.4015L46.9741 47.4294ZM49.8564 47.2062C50.2274 47.2062 50.5984 47.1504 50.9409 47.0109C51.2833 46.8714 51.5687 46.6761 51.8541 46.425C52.1395 46.1739 52.3392 45.8391 52.539 45.4764C52.7388 45.1138 52.8529 44.6674 52.9385 44.1931C53.0241 43.7188 53.0241 43.3003 52.9671 42.9097C52.91 42.5191 52.7958 42.2401 52.6246 41.989C52.4534 41.7379 52.2536 41.5705 52.0253 41.431C51.797 41.3194 51.5402 41.2357 51.2833 41.2357H50.7982C50.7982 41.2357 50.5984 41.2636 50.5128 41.3194C50.4272 41.3752 50.3701 41.4868 50.3416 41.6263C50.3416 41.7379 50.2559 41.9053 50.2274 42.1285C50.1703 42.3517 50.1133 42.5749 50.0276 42.8539C49.942 43.1329 49.885 43.4119 49.7993 43.6909C49.7137 43.9978 49.6281 44.2768 49.5425 44.5837C49.4569 44.8906 49.3713 45.1696 49.3142 45.4485C49.2286 45.7275 49.1715 45.9786 49.1144 46.1739C49.0573 46.3971 49.0288 46.5645 49.0003 46.704C49.0003 46.8714 49.0003 46.983 49.0288 47.0667C49.0859 47.1504 49.1715 47.1783 49.3142 47.1783H49.8564V47.2062Z" fill="white"/>
<path d="M59.3317 46.8431C59.3317 46.8431 59.3317 47.0105 59.3317 47.0663C59.3317 47.1221 59.4173 47.15 59.5029 47.1779L59.7597 47.2337C59.7597 47.2337 59.8739 47.2616 59.9024 47.2895C59.9024 47.3174 59.9595 47.3453 59.9595 47.4011C59.9595 47.4569 59.9595 47.5127 59.8739 47.5406C59.8168 47.5685 59.7597 47.5964 59.6741 47.5964H57.5908C57.5908 47.5964 57.4196 47.5964 57.3911 47.5406C57.3625 47.5127 57.334 47.4569 57.334 47.429C57.334 47.4011 57.334 47.3453 57.3911 47.2895C57.4481 47.2337 57.4767 47.2337 57.5623 47.2058L57.8477 47.15C57.8477 47.15 58.0189 47.0942 58.076 47.0384C58.1331 46.9826 58.1901 46.8989 58.2187 46.7873C58.2472 46.6757 58.3043 46.5083 58.3614 46.2851C58.4184 46.0619 58.4755 45.8387 58.5611 45.5597C58.6467 45.2807 58.7038 45.0017 58.7894 44.6948C58.875 44.3879 58.9607 44.0811 59.0463 43.7742C59.1319 43.4673 59.2175 43.1883 59.2746 42.9093C59.3602 42.6303 59.4173 42.3792 59.4743 42.156C59.5314 41.9328 59.56 41.7654 59.5885 41.6259C59.5885 41.5422 59.5885 41.4585 59.5885 41.4027C59.5885 41.3469 59.5029 41.319 59.4173 41.2911L59.1319 41.2353C59.1319 41.2353 59.0177 41.1795 58.9892 41.1516C58.9607 41.1237 58.9607 41.0958 58.9607 41.04C58.9607 40.9842 58.9607 40.9284 59.0463 40.9005C59.1033 40.8726 59.189 40.8447 59.3031 40.8447H61.3579C61.3579 40.8447 61.5291 40.8447 61.5576 40.9005C61.5862 40.9563 61.6147 40.9563 61.6147 41.0121C61.6147 41.0679 61.6147 41.1237 61.5576 41.1516C61.5291 41.1795 61.4435 41.2074 61.3864 41.2353L61.0725 41.319C61.0725 41.319 60.9012 41.3748 60.8442 41.4027C60.7871 41.4306 60.7586 41.5143 60.73 41.6259C60.7015 41.7654 60.6444 41.9607 60.5588 42.1839C60.5017 42.4071 60.4161 42.6861 60.3305 42.9651C60.2449 43.2441 60.1593 43.551 60.0736 43.8858C59.988 44.1927 59.9024 44.5274 59.8168 44.8343C59.7312 45.1412 59.6456 45.4202 59.5885 45.6992C59.5314 45.9782 59.4743 46.2014 59.4173 46.3967C59.3602 46.592 59.3317 46.7315 59.3317 46.8152V46.8431Z" fill="white"/>
<path d="M66.6653 47.7085C66.3799 47.7085 66.1516 47.7085 65.9519 47.6248C65.7521 47.569 65.6094 47.5132 65.4953 47.4574C65.3811 47.4016 65.2955 47.3179 65.2384 47.2621C65.1813 47.2063 65.1243 47.1784 65.0957 47.1784C65.0672 47.1784 65.0101 47.1784 64.9816 47.2621C64.9245 47.3179 64.896 47.3737 64.8389 47.4295C64.7818 47.4853 64.7247 47.5411 64.6962 47.5969C64.6391 47.6527 64.582 47.6806 64.5535 47.6806C64.4679 47.6806 64.4108 47.6806 64.3823 47.6248C64.3537 47.569 64.3252 47.5132 64.3252 47.4295L64.525 45.7835C64.525 45.7835 64.5535 45.6161 64.6106 45.5882C64.6676 45.5603 64.6962 45.5324 64.7818 45.5324C64.8674 45.5324 64.896 45.5324 64.953 45.5882C64.9816 45.644 65.0386 45.6998 65.0672 45.7835L65.1243 46.202C65.1528 46.5926 65.324 46.8716 65.5809 47.0668C65.8377 47.2621 66.1516 47.3737 66.5226 47.3737C66.7509 47.3737 66.9792 47.3179 67.179 47.2342C67.3788 47.1505 67.5215 47.0389 67.6356 46.8715C67.7498 46.7042 67.8354 46.5368 67.8639 46.3136C67.921 46.0346 67.8639 45.7556 67.7212 45.5045C67.5785 45.2534 67.2932 45.0023 66.8365 44.7233C66.3514 44.4164 66.0089 44.1095 65.7806 43.8026C65.5809 43.4957 65.4953 43.133 65.5523 42.7145C65.5809 42.3797 65.7236 42.0729 65.9233 41.7939C66.1231 41.5149 66.4085 41.2638 66.7795 41.0964C67.1505 40.929 67.5785 40.8174 68.0922 40.8174C68.5203 40.8174 68.8913 40.8732 69.2052 41.0127C69.5191 41.1522 69.7474 41.3196 69.8901 41.5428C70.0328 41.766 70.1184 41.9892 70.1184 42.2403C70.1184 42.3797 70.0613 42.5192 70.0043 42.6029C69.9187 42.6866 69.833 42.7424 69.6904 42.7424C69.5762 42.7424 69.4906 42.7145 69.405 42.6587C69.3479 42.6029 69.2908 42.4913 69.2337 42.3797L69.1481 42.045C69.0625 41.7381 68.9484 41.5428 68.7486 41.3754C68.5488 41.2359 68.3205 41.1522 68.0351 41.1522C67.7498 41.1522 67.5215 41.208 67.2932 41.3196C67.0934 41.4312 66.9222 41.5707 66.7795 41.7381C66.6653 41.9055 66.5797 42.1008 66.5512 42.3239C66.4941 42.6308 66.5512 42.9098 66.7224 43.1609C66.8936 43.412 67.179 43.691 67.6071 43.97C67.9781 44.2211 68.2634 44.4443 68.4632 44.6675C68.663 44.8907 68.8057 45.086 68.8627 45.3092C68.9198 45.5324 68.9484 45.7556 68.9198 46.0346C68.8913 46.3694 68.7771 46.6763 68.5774 46.9273C68.3776 47.1784 68.1208 47.3737 67.8068 47.5132C67.4929 47.6527 67.1219 47.7364 66.7224 47.7364L66.6653 47.7085Z" fill="white"/>
<path d="M78.394 45.671C78.394 45.671 78.4797 45.7268 78.4797 45.8105C78.4797 45.8942 78.4797 45.95 78.394 46.0616C78.2228 46.4243 77.9945 46.7033 77.7091 46.9544C77.4237 47.2055 77.1098 47.4008 76.7388 47.5403C76.3678 47.6798 75.9683 47.7356 75.5402 47.7356C74.998 47.7356 74.5414 47.624 74.1419 47.3729C73.7423 47.1218 73.4855 46.7591 73.3143 46.2848C73.143 45.8105 73.1145 45.2246 73.2286 44.5272C73.3143 44.025 73.457 43.5507 73.7138 43.0764C73.9421 42.63 74.2275 42.2394 74.5985 41.8767C74.9409 41.5419 75.3405 41.2629 75.7685 41.0676C76.1966 40.8723 76.6818 40.7607 77.1669 40.7607C77.3667 40.7607 77.5379 40.7607 77.6806 40.8165C77.8233 40.8444 77.9374 40.9002 78.023 40.956C78.1087 41.0118 78.1943 41.0397 78.2513 41.0955C78.3084 41.1234 78.3655 41.1513 78.394 41.1513C78.4226 41.1513 78.4797 41.1513 78.5082 41.0955C78.5367 41.0676 78.5938 41.0118 78.6223 40.956C78.6794 40.9002 78.708 40.8723 78.765 40.8165C78.8221 40.7886 78.8506 40.7607 78.9077 40.7607C78.9648 40.7607 79.0219 40.7607 79.0504 40.8165C79.079 40.8444 79.1075 40.9002 79.1075 40.9839L79.1931 42.5742C79.1931 42.5742 79.1931 42.6858 79.136 42.7416C79.079 42.7695 79.0219 42.7974 78.9648 42.7974C78.8506 42.7974 78.765 42.7416 78.708 42.6021L78.5938 42.2115C78.4797 41.8488 78.3084 41.5698 78.0801 41.4024C77.8518 41.235 77.5664 41.1513 77.1954 41.1513C76.8244 41.1513 76.5105 41.235 76.2251 41.4024C75.9112 41.5698 75.6544 41.793 75.3975 42.0999C75.1407 42.4068 74.9409 42.7416 74.7697 43.1322C74.5985 43.5228 74.4843 43.9413 74.3987 44.3877C74.2846 45.0293 74.2846 45.5315 74.3987 45.95C74.5129 46.3685 74.6841 46.6475 74.9409 46.8428C75.1978 47.0381 75.5117 47.1218 75.8542 47.1218C76.1395 47.1218 76.3964 47.066 76.6247 46.9823C76.853 46.8986 77.1098 46.7312 77.3096 46.5359C77.5379 46.3406 77.7377 46.0895 77.9089 45.7826C77.966 45.6989 78.0516 45.6431 78.1087 45.6152C78.1657 45.5873 78.2228 45.5873 78.2799 45.6152L78.394 45.671Z" fill="white"/>
<path d="M86.9566 40.7607C87.3847 40.7607 87.7842 40.8723 88.1267 41.0397C88.4691 41.2071 88.726 41.4582 88.9543 41.793C89.1826 42.1278 89.2968 42.4905 89.3538 42.909C89.4109 43.3275 89.3538 43.8018 89.2397 44.3319C89.097 44.8899 88.8972 45.392 88.6118 45.8105C88.3265 46.229 88.0125 46.5917 87.6415 46.8986C87.2705 47.1776 86.8425 47.4008 86.3859 47.5403C85.9293 47.6798 85.4727 47.7356 84.9875 47.7356C84.5594 47.7356 84.1599 47.624 83.8174 47.4287C83.475 47.2334 83.2181 46.9823 83.0184 46.6754C82.8186 46.3685 82.7045 45.95 82.6474 45.5036C82.5903 45.0572 82.6474 44.5551 82.8186 44.025C82.9613 43.5507 83.1611 43.1043 83.4179 42.6858C83.6748 42.2952 84.0172 41.9325 84.3882 41.6535C84.7592 41.3745 85.1587 41.1513 85.6153 40.9839C86.0434 40.8444 86.5 40.7607 86.9852 40.7886L86.9566 40.7607ZM85.1587 47.345C85.4441 47.345 85.701 47.3171 85.9863 47.2055C86.2717 47.0939 86.5286 46.9265 86.7854 46.6754C87.0422 46.4243 87.2705 46.1174 87.4989 45.7268C87.7272 45.3362 87.8984 44.862 88.0411 44.304C88.1267 44.025 88.1552 43.746 88.2123 43.5228C88.2408 43.2996 88.2694 43.0764 88.2694 42.8811C88.2694 42.5184 88.2123 42.2115 88.0696 41.9604C87.9555 41.7093 87.7842 41.514 87.5845 41.3745C87.3847 41.235 87.1564 41.1792 86.8996 41.1513C86.6142 41.1513 86.3288 41.1792 86.072 41.2908C85.8151 41.4024 85.5297 41.5977 85.2729 41.8488C85.016 42.0999 84.7877 42.4068 84.588 42.7695C84.3882 43.1322 84.217 43.5786 84.1028 44.0529C84.0172 44.3598 83.9601 44.6667 83.9316 44.9178C83.9031 45.1688 83.8745 45.392 83.8745 45.6152C83.8745 46.2011 83.9887 46.6196 84.2455 46.8986C84.5024 47.1776 84.8163 47.345 85.2443 47.345H85.1587Z" fill="white"/>
<path d="M97.3731 41.0683C97.3731 41.0683 97.3731 40.9567 97.4302 40.9288C97.4873 40.9009 97.5158 40.873 97.6015 40.873H99.3708C99.3708 40.873 99.5135 40.873 99.5706 40.9288C99.6277 40.9846 99.6277 40.9846 99.6277 41.0404C99.6277 41.0962 99.6277 41.152 99.5706 41.1799C99.542 41.2078 99.485 41.2636 99.3994 41.2636L99.2281 41.3194C99.2281 41.3194 99.0283 41.4031 98.9427 41.4868C98.8571 41.5705 98.7715 41.6542 98.6859 41.7658C98.6003 41.8774 98.5147 42.0169 98.4005 42.1843L95.5182 46.5645C95.5182 46.5645 95.4326 46.704 95.404 46.7598C95.3755 46.8156 95.3469 46.8993 95.3184 46.983L95.2328 47.3178C95.2328 47.3178 95.1757 47.4573 95.1186 47.5131C95.0616 47.5689 95.0045 47.5968 94.8903 47.5968H94.1198C94.1198 47.5968 93.9771 47.5689 93.92 47.5131C93.8915 47.4573 93.8915 47.3736 93.92 47.2899L94.0342 46.9551C94.0342 46.9551 94.0913 46.7877 94.0913 46.704C94.0913 46.6203 94.0913 46.5366 94.0913 46.4808V46.1181C94.0913 45.9507 94.0913 45.7275 94.0913 45.5043C94.0913 45.2811 94.0913 45.0022 94.0913 44.7232C94.0913 44.4442 94.0913 44.1652 94.0913 43.8583C94.0913 43.5793 94.0913 43.3003 94.0913 43.0213C94.0913 42.7423 94.0913 42.4912 94.0913 42.2959C94.0913 42.1006 94.0913 41.9053 94.0913 41.7658C94.0913 41.6542 94.0913 41.5705 94.0342 41.4868C94.0057 41.431 93.9486 41.3752 93.863 41.3473L93.6632 41.2915C93.6632 41.2915 93.549 41.2636 93.549 41.2078C93.549 41.1799 93.5205 41.1241 93.5205 41.0962C93.5205 41.0404 93.5205 41.0125 93.6061 40.9567C93.6917 40.9009 93.7203 40.9009 93.7774 40.9009H95.8321C95.8321 40.9009 95.9462 40.9009 95.9748 40.9567C96.0033 40.9846 96.0319 41.0404 96.0319 41.0683C96.0319 41.1241 96.0319 41.1799 95.9748 41.2078C95.9462 41.2357 95.8892 41.2636 95.8321 41.2915L95.4611 41.3473C95.4611 41.3473 95.2899 41.4031 95.2328 41.4868C95.2042 41.5705 95.1757 41.6821 95.1757 41.8216C95.1757 41.9611 95.1757 42.1564 95.1757 42.3796C95.1757 42.6028 95.1757 42.8818 95.1757 43.1887C95.1757 43.4956 95.1757 43.8025 95.1757 44.1373C95.1757 44.4721 95.1757 44.8069 95.1757 45.1138C95.1757 45.4485 95.1757 45.7554 95.1757 46.0623C95.1757 46.3692 95.1757 46.6482 95.1757 46.8714L94.8333 46.983L98.001 42.1285C98.0866 41.989 98.1437 41.8495 98.1722 41.7379C98.2008 41.6263 98.1722 41.5426 98.1151 41.4589C98.0866 41.3752 98.001 41.3194 97.9154 41.2915L97.6585 41.2357C97.6585 41.2357 97.4588 41.1241 97.4588 41.0404L97.3731 41.0683Z" fill="white"/>
<path d="M105.164 47.5962H101.711C101.711 47.5962 101.568 47.5962 101.539 47.5404C101.511 47.4846 101.482 47.4567 101.482 47.4009C101.482 47.3451 101.482 47.3172 101.539 47.2614C101.568 47.2335 101.625 47.2056 101.682 47.1777L102.025 47.1219C102.025 47.1219 102.196 47.0661 102.253 47.0103C102.31 46.9545 102.339 46.8708 102.396 46.7592C102.396 46.6755 102.453 46.5082 102.51 46.3129C102.567 46.1176 102.624 45.8665 102.71 45.6154C102.795 45.3364 102.852 45.0574 102.938 44.7505C103.023 44.4436 103.109 44.1367 103.195 43.8298C103.28 43.5229 103.366 43.216 103.452 42.937C103.537 42.658 103.594 42.4069 103.651 42.1837C103.708 41.9605 103.765 41.7932 103.765 41.6537C103.765 41.5421 103.794 41.4584 103.765 41.4026C103.765 41.3468 103.708 41.3189 103.623 41.291L103.309 41.2352C103.309 41.2352 103.223 41.2073 103.195 41.1794C103.166 41.1794 103.138 41.1236 103.138 41.0678C103.138 41.012 103.138 40.9562 103.195 40.9283C103.252 40.9004 103.309 40.8725 103.394 40.8725H106.705C106.876 40.8725 106.99 40.8446 107.104 40.7888C107.219 40.733 107.304 40.7051 107.39 40.7051C107.532 40.7051 107.618 40.7888 107.647 40.9283L107.846 42.2116C107.846 42.2116 107.846 42.3511 107.846 42.4069C107.818 42.4627 107.761 42.4627 107.704 42.4906C107.618 42.4906 107.561 42.4906 107.504 42.4348C107.447 42.379 107.418 42.3232 107.361 42.2395C107.276 41.9606 107.161 41.7374 107.076 41.5979C106.99 41.4584 106.876 41.3468 106.762 41.291C106.648 41.2352 106.505 41.2073 106.362 41.2073H104.936C104.878 41.3747 104.821 41.5979 104.764 41.8769C104.707 42.1558 104.622 42.4348 104.536 42.7417C104.45 43.0486 104.365 43.3834 104.279 43.7182C104.194 44.053 104.108 44.3878 103.994 44.7226C103.908 45.0574 103.823 45.3643 103.737 45.6433C103.651 45.9223 103.594 46.1734 103.537 46.3965C103.48 46.6197 103.452 46.7592 103.423 46.8708C103.423 46.9545 103.423 47.0382 103.423 47.094C103.423 47.1498 103.48 47.2056 103.537 47.2335C103.594 47.2614 103.708 47.2893 103.823 47.2893H104.993C105.221 47.2893 105.421 47.2614 105.592 47.1777C105.763 47.094 105.934 46.9824 106.077 46.7871C106.22 46.5918 106.362 46.3687 106.505 46.0618C106.562 45.9502 106.648 45.8665 106.762 45.8665C106.876 45.8665 106.933 45.9502 106.933 46.0897C106.933 46.3129 106.876 46.536 106.819 46.7313C106.762 46.9266 106.676 47.094 106.562 47.2614C106.448 47.4288 106.334 47.5404 106.191 47.6241C106.049 47.7078 105.877 47.7636 105.735 47.7636C105.62 47.7636 105.535 47.7636 105.449 47.7078C105.364 47.652 105.249 47.652 105.135 47.652L105.164 47.5962ZM103.708 44.053H105.478C105.62 44.053 105.735 43.9972 105.82 43.9135C105.906 43.8298 105.963 43.6624 105.963 43.4113C105.963 43.3555 105.991 43.3276 106.049 43.2997C106.077 43.2997 106.106 43.2718 106.163 43.2718C106.22 43.2718 106.277 43.2718 106.305 43.3276C106.334 43.3555 106.362 43.4113 106.362 43.4671L106.619 44.8621C106.619 44.8621 106.619 45.0016 106.591 45.0574C106.562 45.1132 106.505 45.1132 106.448 45.1132C106.391 45.1132 106.334 45.1132 106.305 45.0853C106.277 45.0853 106.248 45.0295 106.22 44.9737C106.134 44.7505 106.049 44.5831 105.963 44.5273C105.849 44.4436 105.706 44.4157 105.535 44.4157H103.623L103.737 44.0809L103.708 44.053Z" fill="white"/>
<path d="M112.726 44.6948L113.011 44.4158C113.011 44.4158 113.325 44.5553 113.496 44.6111C113.696 44.6669 113.896 44.6948 114.124 44.6948C114.495 44.6948 114.837 44.639 115.123 44.4995C115.408 44.36 115.637 44.1648 115.808 43.9137C115.979 43.6626 116.093 43.3557 116.15 43.0209C116.236 42.6303 116.207 42.2955 116.122 42.0444C116.008 41.7933 115.865 41.598 115.608 41.4585C115.38 41.319 115.094 41.2632 114.78 41.2632C114.524 41.2632 114.324 41.2911 114.238 41.3748C114.124 41.4585 114.067 41.5701 114.01 41.7096C113.981 41.8212 113.924 41.9886 113.867 42.2118C113.81 42.435 113.753 42.6582 113.667 42.9372C113.582 43.2162 113.525 43.4952 113.439 43.8021C113.353 44.109 113.268 44.4158 113.182 44.7227C113.097 45.0296 113.011 45.3086 112.954 45.5876C112.868 45.8666 112.811 46.1177 112.754 46.313C112.697 46.5362 112.669 46.7036 112.64 46.8152C112.64 46.9268 112.64 47.0105 112.64 47.0384C112.669 47.0942 112.726 47.1221 112.783 47.15L113.068 47.2058C113.068 47.2058 113.182 47.2616 113.211 47.2895C113.239 47.3174 113.268 47.3453 113.268 47.4011C113.268 47.4569 113.268 47.5127 113.182 47.5406C113.097 47.5685 113.068 47.5964 112.982 47.5964H110.899C110.899 47.5964 110.757 47.5964 110.728 47.5406C110.699 47.5127 110.671 47.4569 110.671 47.429C110.671 47.3732 110.671 47.3174 110.728 47.2895C110.757 47.2616 110.814 47.2337 110.899 47.2058L111.156 47.15C111.156 47.15 111.356 47.0942 111.413 47.0384C111.47 46.9826 111.527 46.8989 111.556 46.7873C111.584 46.6757 111.641 46.5083 111.698 46.313C111.755 46.1177 111.812 45.8666 111.898 45.5876C111.984 45.3086 112.069 45.0296 112.155 44.7227C112.24 44.4158 112.326 44.109 112.412 43.8021C112.497 43.4952 112.583 43.1883 112.64 42.9093C112.726 42.6303 112.783 42.3792 112.84 42.156C112.897 41.9328 112.925 41.7654 112.954 41.6538C112.954 41.5422 112.982 41.4585 112.954 41.4027C112.954 41.3469 112.868 41.319 112.783 41.2911L112.497 41.2353C112.497 41.2353 112.383 41.1795 112.355 41.1516C112.355 41.1237 112.326 41.0958 112.326 41.04C112.326 40.9842 112.326 40.9284 112.412 40.9005C112.469 40.8726 112.526 40.8447 112.611 40.8447H114.952C115.494 40.8447 115.922 40.9284 116.293 41.1237C116.664 41.319 116.921 41.5701 117.092 41.9049C117.263 42.2397 117.292 42.6303 117.206 43.1046C117.121 43.4673 116.949 43.8021 116.692 44.0811C116.436 44.36 116.093 44.5832 115.665 44.7506C115.237 44.918 114.78 45.0017 114.238 45.0017C113.896 45.0017 113.61 45.0017 113.382 44.918C113.154 44.8343 112.897 44.7785 112.726 44.6669V44.6948ZM114.21 44.9738L115.208 44.8064L115.722 46.3967C115.779 46.5641 115.808 46.6757 115.865 46.7873C115.922 46.871 115.979 46.9268 116.008 46.9826C116.036 47.0384 116.122 47.0384 116.179 47.0384C116.236 47.0384 116.293 47.0384 116.35 46.9826C116.407 46.9547 116.464 46.8989 116.493 46.8431C116.493 46.8431 116.55 46.7873 116.578 46.7873C116.607 46.7873 116.664 46.7873 116.692 46.7873C116.75 46.7873 116.778 46.8431 116.778 46.871C116.778 46.9268 116.778 46.9826 116.778 47.0384C116.692 47.2337 116.55 47.4011 116.321 47.5406C116.093 47.6801 115.893 47.7359 115.608 47.7359C115.465 47.7359 115.351 47.7359 115.237 47.6522C115.123 47.5964 115.037 47.5127 114.952 47.3732C114.866 47.2337 114.78 47.0663 114.723 46.8152L114.181 44.9738H114.21Z" fill="white"/>
<path d="M128.108 47.7085C127.822 47.7085 127.594 47.7085 127.394 47.6248C127.194 47.569 127.052 47.5132 126.938 47.4574C126.823 47.4016 126.738 47.3179 126.681 47.2621C126.624 47.2063 126.567 47.1784 126.538 47.1784C126.51 47.1784 126.452 47.1784 126.424 47.2621C126.367 47.3179 126.338 47.3737 126.281 47.4295C126.224 47.4853 126.167 47.5411 126.139 47.5969C126.081 47.6527 126.024 47.6806 125.996 47.6806C125.91 47.6806 125.853 47.6806 125.825 47.6248C125.796 47.569 125.768 47.5132 125.768 47.4295L125.967 45.7835C125.967 45.7835 125.996 45.6161 126.053 45.5882C126.11 45.5603 126.139 45.5324 126.224 45.5324C126.31 45.5324 126.338 45.5324 126.395 45.5882C126.424 45.644 126.481 45.6998 126.51 45.7835L126.567 46.202C126.595 46.5926 126.766 46.8716 127.023 47.0668C127.28 47.2621 127.594 47.3737 127.965 47.3737C128.193 47.3737 128.422 47.3179 128.621 47.2342C128.821 47.1505 128.964 47.0389 129.078 46.8715C129.192 46.7042 129.278 46.5368 129.306 46.3136C129.363 46.0346 129.306 45.7556 129.164 45.5045C129.021 45.2534 128.736 45.0023 128.279 44.7233C127.794 44.4164 127.451 44.1095 127.223 43.8026C127.023 43.4957 126.938 43.133 126.995 42.7145C127.023 42.3797 127.166 42.0729 127.366 41.7939C127.565 41.5149 127.851 41.2638 128.222 41.0964C128.593 40.929 129.021 40.8174 129.535 40.8174C129.963 40.8174 130.334 40.8732 130.648 41.0127C130.962 41.1522 131.19 41.3196 131.333 41.5428C131.475 41.766 131.561 41.9892 131.561 42.2403C131.561 42.3797 131.504 42.5192 131.447 42.6029C131.361 42.6866 131.275 42.7424 131.133 42.7424C131.019 42.7424 130.933 42.7145 130.847 42.6587C130.79 42.6029 130.733 42.4913 130.676 42.3797L130.591 42.045C130.505 41.7381 130.391 41.5428 130.191 41.3754C129.991 41.2359 129.763 41.1522 129.478 41.1522C129.192 41.1522 128.964 41.208 128.736 41.3196C128.536 41.4312 128.365 41.5707 128.222 41.7381C128.108 41.9055 128.022 42.1008 127.994 42.3239C127.936 42.6308 127.994 42.9098 128.165 43.1609C128.336 43.412 128.621 43.691 129.049 43.97C129.42 44.2211 129.706 44.4443 129.906 44.6675C130.105 44.8907 130.248 45.086 130.305 45.3092C130.362 45.5324 130.391 45.7556 130.362 46.0346C130.334 46.3694 130.22 46.6763 130.02 46.9273C129.82 47.1784 129.563 47.3737 129.249 47.5132C128.935 47.6527 128.564 47.7364 128.165 47.7364L128.108 47.7085Z" fill="white"/>
<path d="M138.381 45.8665L138.01 46.0897L141.064 41.2631C141.064 41.2631 141.235 41.0399 141.349 40.9841C141.463 40.9283 141.549 40.9004 141.663 40.9004H142.662C142.662 40.9004 142.805 40.9004 142.862 40.9562C142.919 41.012 142.919 41.0399 142.919 41.0957C142.919 41.1515 142.919 41.2073 142.862 41.2352C142.833 41.2631 142.776 41.291 142.719 41.291L142.434 41.3468C142.434 41.3468 142.291 41.4026 142.234 41.4584C142.177 41.5142 142.148 41.5979 142.12 41.6816C142.12 41.8211 142.063 42.0164 142.006 42.2675C141.948 42.5186 141.92 42.7418 141.863 43.0207C141.806 43.2997 141.749 43.5787 141.692 43.8856C141.635 44.1925 141.577 44.4715 141.52 44.7784C141.463 45.0853 141.406 45.3643 141.349 45.6154C141.292 45.8944 141.264 46.1176 141.206 46.3129C141.149 46.5082 141.149 46.6756 141.121 46.8151C141.121 46.8988 141.121 46.9825 141.121 47.0383C141.121 47.0941 141.206 47.1499 141.292 47.1499L141.606 47.2336C141.606 47.2336 141.692 47.2615 141.72 47.2894C141.749 47.3173 141.749 47.3451 141.749 47.4009C141.749 47.4567 141.749 47.5125 141.663 47.5404C141.577 47.5683 141.549 47.5962 141.463 47.5962H139.409C139.409 47.5962 139.266 47.5962 139.209 47.5404C139.152 47.4846 139.152 47.4567 139.152 47.4009C139.152 47.3451 139.18 47.2894 139.237 47.2615C139.266 47.2336 139.323 47.2057 139.38 47.2057L139.694 47.1499C139.694 47.1499 139.865 47.0941 139.922 47.0383C139.979 46.9825 140.036 46.8988 140.036 46.7872C140.065 46.5919 140.122 46.3966 140.151 46.1455C140.208 45.8944 140.265 45.6433 140.293 45.3643C140.35 45.0853 140.407 44.8063 140.464 44.4994C140.522 44.1925 140.579 43.8856 140.636 43.6066C140.693 43.2997 140.75 43.0207 140.807 42.7139C140.864 42.4349 140.893 42.1559 140.95 41.9048H141.092L138.181 46.564C138.096 46.6756 138.01 46.7593 137.953 46.8151C137.896 46.8709 137.81 46.8709 137.725 46.8709C137.639 46.8709 137.582 46.843 137.525 46.7872C137.468 46.7314 137.439 46.6477 137.411 46.564C137.382 46.3408 137.325 46.0897 137.297 45.8386C137.268 45.5875 137.211 45.3364 137.183 45.0574C137.154 44.7784 137.097 44.5273 137.068 44.2483C137.011 43.9693 136.983 43.7182 136.926 43.4392C136.869 43.1602 136.84 42.9091 136.783 42.6581C136.755 42.407 136.697 42.1559 136.64 41.9048H136.84L135.413 46.5919C135.356 46.7593 135.356 46.8988 135.413 46.9825C135.442 47.0662 135.527 47.1499 135.642 47.1778L135.927 47.2615C135.927 47.2615 136.098 47.373 136.07 47.4288C136.07 47.4846 136.041 47.5404 135.984 47.5683C135.927 47.5962 135.841 47.6241 135.756 47.6241H134.243C134.243 47.6241 134.072 47.6241 134.043 47.5683C134.015 47.5404 133.986 47.4846 133.986 47.4288C133.986 47.373 133.986 47.3173 134.043 47.2894C134.072 47.2615 134.129 47.2336 134.215 47.2057L134.443 47.1499C134.443 47.1499 134.614 47.0941 134.671 47.0383C134.728 46.9825 134.785 46.8988 134.842 46.8151C134.9 46.7035 134.957 46.564 135.014 46.3687L136.384 41.7932C136.384 41.7932 136.441 41.57 136.384 41.5142C136.384 41.4584 136.298 41.4026 136.212 41.3747L135.87 41.291C135.87 41.291 135.784 41.2352 135.756 41.2073C135.756 41.2073 135.727 41.1515 135.727 41.0957C135.727 41.0399 135.756 40.9841 135.813 40.9562C135.87 40.9283 135.927 40.9004 136.013 40.9004H137.04C137.04 40.9004 137.268 40.9283 137.354 41.012C137.439 41.0957 137.497 41.2073 137.525 41.3747C137.554 41.5979 137.611 41.8211 137.639 42.0722C137.668 42.3233 137.725 42.5465 137.753 42.7975C137.782 43.0486 137.839 43.2997 137.868 43.5508C137.896 43.8019 137.953 44.0809 137.982 44.332C138.039 44.5831 138.067 44.8621 138.124 45.1132C138.181 45.3643 138.21 45.6154 138.267 45.8944L138.381 45.8665Z" fill="white"/>
<path d="M146.715 46.4246C146.601 46.6199 146.543 46.7873 146.572 46.9268C146.572 47.0663 146.686 47.15 146.8 47.1779L147.057 47.2337C147.057 47.2337 147.171 47.2895 147.171 47.3174C147.171 47.3453 147.2 47.3732 147.2 47.429C147.2 47.4848 147.2 47.5406 147.143 47.5685C147.086 47.5964 147.029 47.6243 146.943 47.6243H145.459C145.459 47.6243 145.288 47.6243 145.259 47.5685C145.202 47.5406 145.202 47.4848 145.202 47.429C145.202 47.3732 145.202 47.3174 145.259 47.2895C145.288 47.2616 145.373 47.2058 145.488 47.1779C145.602 47.15 145.716 47.0663 145.859 46.9268C145.973 46.7873 146.115 46.6199 146.23 46.4246L148.769 42.3792C149.14 41.8491 149.511 41.4585 149.882 41.2074C150.253 40.9563 150.596 40.8447 150.967 40.8447C151.081 40.8447 151.195 40.8447 151.252 40.9005C151.309 40.9563 151.338 40.9842 151.338 41.04C151.338 41.0958 151.338 41.1237 151.309 41.1516C151.309 41.1795 151.224 41.2074 151.167 41.2353C151.052 41.2632 150.938 41.319 150.881 41.4306C150.796 41.5143 150.767 41.6817 150.767 41.8491C150.767 41.9607 150.767 42.1281 150.767 42.3513C150.767 42.5466 150.767 42.7977 150.767 43.0767C150.767 43.3557 150.767 43.6347 150.767 43.9137C150.767 44.1927 150.767 44.4995 150.767 44.8064C150.767 45.1133 150.767 45.3644 150.767 45.6434C150.767 45.8945 150.767 46.1456 150.767 46.3409V46.7873C150.767 46.7873 150.767 46.9547 150.796 47.0384C150.796 47.0942 150.881 47.15 150.938 47.2058C150.995 47.2337 151.081 47.2895 151.195 47.3174C151.309 47.3453 151.338 47.4011 151.338 47.4848C151.338 47.5406 151.338 47.5964 151.281 47.6243C151.224 47.6522 151.167 47.6801 151.081 47.6801H149.083C149.083 47.6801 148.969 47.6801 148.912 47.6243C148.855 47.5685 148.855 47.5406 148.855 47.5127C148.855 47.4848 148.855 47.429 148.912 47.4011C148.941 47.3732 148.998 47.3453 149.055 47.3174L149.397 47.2337C149.397 47.2337 149.568 47.15 149.626 47.0942C149.683 47.0105 149.711 46.9268 149.711 46.8152C149.711 46.7036 149.711 46.5362 149.711 46.313C149.711 46.1177 149.711 45.8666 149.711 45.5876C149.711 45.3086 149.711 45.0296 149.711 44.7506C149.711 44.4716 149.711 44.1369 149.711 43.8579C149.711 43.5789 149.711 43.272 149.711 42.993C149.711 42.714 149.711 42.4629 149.711 42.2397C149.711 42.0165 149.711 41.8491 149.711 41.7096L149.939 41.7933C149.939 41.7933 149.825 41.877 149.74 41.9607C149.654 42.0444 149.568 42.1281 149.454 42.2397C149.34 42.3513 149.226 42.5187 149.112 42.6861L146.715 46.5641V46.4246ZM147.086 45.3923L147.2 45.0575H149.968V45.3923H147.086Z" fill="white"/>
<path d="M156.902 44.6948L157.188 44.4158C157.188 44.4158 157.502 44.5553 157.673 44.6111C157.873 44.6669 158.072 44.6948 158.301 44.6948C158.672 44.6948 159.014 44.639 159.3 44.4995C159.585 44.36 159.813 44.1648 159.985 43.9137C160.156 43.6626 160.27 43.3557 160.327 43.0209C160.413 42.6303 160.384 42.2955 160.298 42.0444C160.184 41.7933 160.042 41.598 159.785 41.4585C159.556 41.319 159.271 41.2632 158.957 41.2632C158.7 41.2632 158.501 41.2911 158.415 41.3748C158.301 41.4585 158.244 41.5701 158.187 41.7096C158.158 41.8212 158.101 41.9886 158.044 42.2118C157.987 42.435 157.93 42.6582 157.844 42.9372C157.759 43.2162 157.701 43.4952 157.616 43.8021C157.53 44.109 157.445 44.4158 157.359 44.7227C157.273 45.0296 157.188 45.3086 157.131 45.5876C157.045 45.8666 156.988 46.1177 156.931 46.313C156.874 46.5362 156.845 46.7036 156.817 46.8152C156.817 46.9268 156.817 47.0105 156.817 47.0384C156.845 47.0942 156.902 47.1221 156.959 47.15L157.245 47.2058C157.245 47.2058 157.359 47.2616 157.388 47.2895C157.416 47.3174 157.445 47.3453 157.445 47.4011C157.445 47.4569 157.445 47.5127 157.359 47.5406C157.273 47.5685 157.245 47.5964 157.159 47.5964H155.076C155.076 47.5964 154.933 47.5964 154.905 47.5406C154.876 47.5127 154.848 47.4569 154.848 47.429C154.848 47.3732 154.848 47.3174 154.905 47.2895C154.933 47.2616 154.99 47.2337 155.076 47.2058L155.333 47.15C155.333 47.15 155.533 47.0942 155.59 47.0384C155.647 46.9826 155.704 46.8989 155.732 46.7873C155.761 46.6757 155.818 46.5083 155.875 46.313C155.932 46.1177 155.989 45.8666 156.075 45.5876C156.16 45.3086 156.246 45.0296 156.332 44.7227C156.417 44.4158 156.503 44.109 156.588 43.8021C156.674 43.4952 156.76 43.1883 156.817 42.9093C156.902 42.6303 156.959 42.3792 157.017 42.156C157.074 41.9328 157.102 41.7654 157.131 41.6538C157.131 41.5422 157.159 41.4585 157.131 41.4027C157.131 41.3469 157.045 41.319 156.959 41.2911L156.674 41.2353C156.674 41.2353 156.56 41.1795 156.531 41.1516C156.531 41.1237 156.503 41.0958 156.503 41.04C156.503 40.9842 156.503 40.9284 156.588 40.9005C156.646 40.8726 156.703 40.8447 156.788 40.8447H159.128C159.671 40.8447 160.099 40.9284 160.47 41.1237C160.841 41.319 161.097 41.5701 161.269 41.9049C161.44 42.2397 161.468 42.6303 161.383 43.1046C161.297 43.4673 161.126 43.8021 160.869 44.0811C160.612 44.36 160.27 44.5832 159.842 44.7506C159.414 44.918 158.957 45.0017 158.415 45.0017C158.072 45.0017 157.787 45.0017 157.559 44.918C157.33 44.8343 157.074 44.7785 156.902 44.6669V44.6948ZM158.415 44.9738L159.414 44.8064L159.927 46.3967C159.985 46.5641 160.013 46.6757 160.07 46.7873C160.127 46.871 160.184 46.9268 160.213 46.9826C160.241 47.0384 160.327 47.0384 160.384 47.0384C160.441 47.0384 160.498 47.0384 160.555 46.9826C160.612 46.9547 160.669 46.8989 160.698 46.8431C160.698 46.8431 160.755 46.7873 160.784 46.7873C160.812 46.7873 160.869 46.7873 160.898 46.7873C160.955 46.7873 160.983 46.8431 160.983 46.871C160.983 46.9268 160.983 46.9826 160.983 47.0384C160.898 47.2337 160.755 47.4011 160.527 47.5406C160.298 47.6801 160.099 47.7359 159.813 47.7359C159.671 47.7359 159.556 47.7359 159.442 47.6522C159.328 47.5964 159.243 47.5127 159.157 47.3732C159.071 47.2337 158.986 47.0663 158.929 46.8152L158.386 44.9738H158.415Z" fill="white"/>
<path d="M167.148 40.7887C167.319 40.7887 167.519 40.7887 167.747 40.8445C167.975 40.8724 168.203 40.9282 168.432 40.9561C168.66 41.0119 168.888 41.0398 169.117 41.0956C169.345 41.1514 169.545 41.1793 169.716 41.2072C169.887 41.2351 170.03 41.263 170.144 41.263C170.258 41.263 170.372 41.263 170.429 41.2072C170.487 41.1793 170.544 41.1235 170.572 41.0398C170.572 40.984 170.601 40.9282 170.601 40.8724C170.601 40.8166 170.601 40.7608 170.601 40.705C170.601 40.5934 170.658 40.5097 170.743 40.4261C170.829 40.3424 170.915 40.3145 171.057 40.3145C171.171 40.3145 171.286 40.3424 171.343 40.4261C171.428 40.5097 171.457 40.6492 171.457 40.8166C171.457 41.0956 171.343 41.3188 171.171 41.4583C170.972 41.6257 170.715 41.7094 170.401 41.7094C170.258 41.7094 170.087 41.7094 169.859 41.6536C169.659 41.6257 169.431 41.5699 169.174 41.5141C168.945 41.4583 168.689 41.4025 168.432 41.3467C168.175 41.2909 167.947 41.2351 167.747 41.2072C167.519 41.1793 167.347 41.1514 167.205 41.1514C166.919 41.1514 166.719 41.2072 166.605 41.2909C166.491 41.3746 166.434 41.5141 166.406 41.6536C166.406 41.7373 166.406 41.7931 166.406 41.8489C166.406 41.9047 166.463 41.9605 166.463 42.0163C166.463 42.0721 166.491 42.1279 166.491 42.2116C166.491 42.3232 166.463 42.4069 166.377 42.4906C166.291 42.5743 166.177 42.6022 166.035 42.6022C165.892 42.6022 165.749 42.5464 165.664 42.4348C165.578 42.3232 165.521 42.1558 165.549 41.9605C165.549 41.7373 165.607 41.542 165.749 41.3746C165.892 41.2072 166.035 41.0677 166.263 40.9561C166.491 40.8445 166.777 40.8166 167.119 40.8166L167.148 40.7887ZM167.633 46.8987C167.633 46.8987 167.633 47.0382 167.633 47.094C167.661 47.1498 167.718 47.1777 167.775 47.1777L168.146 47.2614C168.146 47.2614 168.318 47.373 168.318 47.4288C168.318 47.4846 168.289 47.5404 168.232 47.5683C168.175 47.5962 168.118 47.6241 168.032 47.6241H165.92C165.92 47.6241 165.778 47.6241 165.721 47.5683C165.692 47.5404 165.664 47.4846 165.664 47.4567C165.664 47.4009 165.664 47.3451 165.721 47.3172C165.749 47.2893 165.806 47.2614 165.892 47.2335L166.234 47.1777C166.234 47.1777 166.377 47.1219 166.434 47.0661C166.491 47.0103 166.52 46.9266 166.577 46.815C166.634 46.6755 166.691 46.4802 166.748 46.257C166.805 46.0338 166.891 45.7548 166.976 45.4479C167.062 45.1411 167.148 44.8342 167.262 44.4994C167.347 44.1646 167.461 43.8298 167.547 43.495C167.633 43.1602 167.718 42.8254 167.804 42.5185C167.89 42.2116 167.975 41.9326 168.032 41.6815C168.118 41.4304 168.146 41.2351 168.203 41.0956L169.231 41.2909C169.174 41.4304 169.117 41.6536 169.06 41.9047C169.003 42.1558 168.917 42.4348 168.831 42.7417C168.746 43.0486 168.66 43.3834 168.574 43.7182C168.489 44.053 168.375 44.3878 168.289 44.7226C168.203 45.0574 168.118 45.3642 168.032 45.6711C167.947 45.978 167.89 46.2291 167.804 46.4523C167.747 46.6755 167.69 46.8429 167.661 46.9824L167.633 46.8987Z" fill="white"/>
</g>
<defs>
<clipPath id="clip0_2_1169">
<rect width="220" height="47.7358" fill="white"/>
</clipPath>
</defs>
</svg>
