<svg width="20" height="23" viewBox="0 0 20 23" fill="none" xmlns="http://www.w3.org/2000/svg">
<path d="M0.376075 0.95404C0.13786 1.20543 0 1.59682 0 2.10369V20.1833C0 20.6902 0.13786 21.0816 0.376075 21.333L0.434869 21.3882L10.4845 11.261V11.0219L0.434869 0.894772L0.376075 0.95404Z" fill="white"/>
<path d="M15.0464 14.6382L11.7002 11.2608V11.0216L15.0504 7.64422L15.1254 7.68816L19.093 9.96396C20.2253 10.6098 20.2253 11.6726 19.093 12.3225L15.1254 14.5942L15.0464 14.6382Z" fill="white"/>
<path d="M14.5171 15.2236L11.0918 11.7706L0.983398 21.9621C1.35947 22.3607 1.97275 22.4087 2.67016 22.0102L14.5171 15.2236Z" fill="white"/>
<path d="M14.5171 7.05917L2.67016 0.272656C1.97275 -0.121802 1.35947 -0.0737734 0.983398 0.324772L11.0918 10.5122L14.5171 7.05917Z" fill="white"/>
</svg>
