<svg width="25" height="25" viewBox="0 0 25 25" fill="none" xmlns="http://www.w3.org/2000/svg">
<rect width="25" height="25" fill="#1E1E1E"/>
<g clip-path="url(#clip0_0_1)">
<rect width="1440" height="7570" transform="translate(-280.5 -575)" fill="white"/>
<g opacity="0.55">
<g filter="url(#filter0_f_0_1)">
<path d="M956.285 843.009C1029.98 752.019 1092.33 605.457 1090.49 485.288C1084.66 102.625 286.766 451.812 116.18 788.618C-28.991 1075.25 -174.272 1646.34 130.596 1670.33C323.93 1685.55 533.713 1618.57 616.809 1431.97C666.129 1321.21 646.465 1138.93 715.548 1040.9C769.587 964.212 897.483 915.609 956.285 843.009Z" fill="#8BB5FF" fill-opacity="0.4"/>
</g>
<g filter="url(#filter1_f_0_1)">
<path d="M240.094 873.278C374.093 873.278 407.164 645.768 407.164 503.279C407.164 360.789 726.577 274.348 541.384 182.779C455.436 140.282 388.885 151.631 298.756 182.779C84.6561 256.769 -2.53418 472.789 -2.53418 615.278C-2.53418 757.768 106.094 873.278 240.094 873.278Z" fill="#FFD596" fill-opacity="0.49"/>
</g>
<g filter="url(#filter2_f_0_1)">
<path d="M-50.8848 1485C83.1078 1485 116.177 1063.73 116.177 799.89C116.177 536.05 435.574 375.992 250.39 206.436C164.447 127.747 97.899 148.762 7.77454 206.436C-206.314 343.44 -293.5 743.434 -293.5 1007.27C-293.5 1271.12 -184.877 1485 -50.8848 1485Z" fill="#8BB5FF" fill-opacity="0.3"/>
</g>
<g filter="url(#filter3_f_0_1)">
<path d="M527.304 737.278C661.304 737.278 694.375 509.768 694.375 367.279C694.375 224.789 1013.79 138.348 828.595 46.7787C742.647 4.2818 676.096 15.6313 585.967 46.7787C371.867 120.769 284.677 336.789 284.677 479.278C284.677 621.768 393.305 737.278 527.304 737.278Z" fill="#9791EC" fill-opacity="0.4"/>
</g>
<path d="M1394.02 1755.12C1488.61 1593.83 1561.92 1327.89 1547.79 1104.05C1502.77 391.251 417.481 953.913 210.692 1562.09C34.7106 2079.66 -114.039 3126.6 315.792 3204.58C588.372 3254.02 876.105 3152.3 974.668 2814.1C1033.17 2613.37 988.043 2271.99 1075.48 2097.09C1143.88 1960.28 1318.55 1883.8 1394.02 1755.12Z" fill="#FBE8DA"/>
</g>
<rect x="-15.5" y="-10" width="103" height="45" rx="22.5" fill="#F2F2F2"/>
<path d="M13.5413 8.42395V15.2083L12.4454 19.3135L10.9736 16.9656C10.7382 16.5896 10.209 16.5427 9.91107 16.8719L8.03607 18.9417L6.50586 17.1365L8.33294 13.6115V8.33333L12.6288 7.64583C13.1079 7.56979 13.5413 7.93854 13.5413 8.42395Z" fill="url(#paint0_linear_0_1)"/>
<path d="M5.93375 13.3959C5.74521 13.3959 5.55563 13.3657 5.36917 13.3042L2.79625 12.4459C2.25042 12.2636 1.95563 11.674 2.13792 11.1282C2.32021 10.5823 2.90875 10.2854 3.45563 10.4698L5.80563 11.2532L7.18583 9.06253C7.65458 8.31878 8.42438 7.82399 9.29729 7.70628L12.2358 7.31149C12.8744 7.22711 13.5306 7.35315 14.089 7.66982L16.2202 8.87503L18.141 7.48857C18.6088 7.15315 19.2588 7.25836 19.5952 7.72399C19.9317 8.19065 19.8265 8.84169 19.3598 9.17815L17.3671 10.6167C16.7525 11.0604 15.9306 11.1052 15.2702 10.7313L13.0619 9.48232C12.8963 9.38857 12.7015 9.35003 12.5129 9.37607L9.57438 9.77086C9.31604 9.80628 9.08792 9.95211 8.94833 10.1729L7.44313 12.5625C7.10771 13.0927 6.53375 13.3959 5.93375 13.3959Z" fill="url(#paint1_linear_0_1)"/>
<path d="M15.6257 22.9166C15.3111 22.9166 15.0007 22.775 14.7954 22.5052L12.8392 19.9323C12.3392 19.275 12.009 18.4958 11.884 17.6781L11.4715 14.975C11.4632 14.9229 11.459 14.8708 11.459 14.8177V12.8125C11.459 12.2375 11.9257 11.7708 12.5007 11.7708C13.0757 11.7708 13.5423 12.2375 13.5423 12.8125V14.7396L13.9434 17.3646C14.0152 17.8385 14.2069 18.2906 14.4975 18.6719L16.4538 21.2448C16.8017 21.7031 16.7132 22.3562 16.2559 22.7041C16.0663 22.8479 15.8454 22.9166 15.6257 22.9166Z" fill="url(#paint2_linear_0_1)"/>
<path d="M8.21547 22.9166C7.75818 22.9166 7.33839 22.6125 7.2113 22.151L6.34568 19.001C6.14047 18.2541 6.2686 17.4552 6.69881 16.8093L8.66547 13.8593C8.98526 13.3812 9.63006 13.25 10.1103 13.5708C10.5884 13.8906 10.7176 14.5364 10.3988 15.0156L8.43214 17.9646C8.33735 18.1073 8.30818 18.2843 8.35401 18.4489L9.21964 21.6C9.37172 22.1552 9.04568 22.7281 8.49151 22.8802C8.39881 22.9052 8.3061 22.9166 8.21547 22.9166Z" fill="url(#paint3_linear_0_1)"/>
<path opacity="0.35" d="M9.89616 6.25002C11.3344 6.25002 12.5003 5.0841 12.5003 3.64585C12.5003 2.20761 11.3344 1.04169 9.89616 1.04169C8.45792 1.04169 7.29199 2.20761 7.29199 3.64585C7.29199 5.0841 8.45792 6.25002 9.89616 6.25002Z" fill="url(#paint4_linear_0_1)"/>
<path opacity="0.35" d="M22.3955 11.4583H20.833C20.258 11.4583 19.7913 11.925 19.7913 12.5V14.6791C19.6278 14.6208 19.4538 14.5833 19.2705 14.5833C18.408 14.5833 17.708 15.2833 17.708 16.1458C17.708 17.0083 18.408 17.7083 19.2705 17.7083C20.133 17.7083 20.833 17.0083 20.833 16.1458V13.5416H21.8747C22.4497 13.5416 22.9163 13.075 22.9163 12.5V11.9791C22.9163 11.6916 22.683 11.4583 22.3955 11.4583Z" fill="url(#paint5_linear_0_1)"/>
</g>
<defs>
<filter id="filter0_f_0_1" x="-448.788" y="-81.7681" width="1939.32" height="2154.18" filterUnits="userSpaceOnUse" color-interpolation-filters="sRGB">
<feFlood flood-opacity="0" result="BackgroundImageFix"/>
<feBlend mode="normal" in="SourceGraphic" in2="BackgroundImageFix" result="shape"/>
<feGaussianBlur stdDeviation="200" result="effect1_foregroundBlur_0_1"/>
</filter>
<filter id="filter1_f_0_1" x="-402.534" y="-245" width="1401.67" height="1518.28" filterUnits="userSpaceOnUse" color-interpolation-filters="sRGB">
<feFlood flood-opacity="0" result="BackgroundImageFix"/>
<feBlend mode="normal" in="SourceGraphic" in2="BackgroundImageFix" result="shape"/>
<feGaussianBlur stdDeviation="200" result="effect1_foregroundBlur_0_1"/>
</filter>
<filter id="filter2_f_0_1" x="-693.5" y="-245" width="1401.64" height="2130" filterUnits="userSpaceOnUse" color-interpolation-filters="sRGB">
<feFlood flood-opacity="0" result="BackgroundImageFix"/>
<feBlend mode="normal" in="SourceGraphic" in2="BackgroundImageFix" result="shape"/>
<feGaussianBlur stdDeviation="200" result="effect1_foregroundBlur_0_1"/>
</filter>
<filter id="filter3_f_0_1" x="-115.323" y="-381" width="1401.67" height="1518.28" filterUnits="userSpaceOnUse" color-interpolation-filters="sRGB">
<feFlood flood-opacity="0" result="BackgroundImageFix"/>
<feBlend mode="normal" in="SourceGraphic" in2="BackgroundImageFix" result="shape"/>
<feGaussianBlur stdDeviation="200" result="effect1_foregroundBlur_0_1"/>
</filter>
<linearGradient id="paint0_linear_0_1" x1="6.50586" y1="13.4747" x2="12.7986" y2="13.4926" gradientUnits="userSpaceOnUse">
<stop stop-color="#AD54F0"/>
<stop offset="1" stop-color="#D24DBC"/>
</linearGradient>
<linearGradient id="paint1_linear_0_1" x1="2.08398" y1="10.3409" x2="17.92" y2="10.5582" gradientUnits="userSpaceOnUse">
<stop stop-color="#AD54F0"/>
<stop offset="1" stop-color="#D24DBC"/>
</linearGradient>
<linearGradient id="paint2_linear_0_1" x1="11.459" y1="17.3437" x2="16.1166" y2="17.354" gradientUnits="userSpaceOnUse">
<stop stop-color="#AD54F0"/>
<stop offset="1" stop-color="#D24DBC"/>
</linearGradient>
<linearGradient id="paint3_linear_0_1" x1="6.25" y1="18.1558" x2="10.1173" y2="18.1641" gradientUnits="userSpaceOnUse">
<stop stop-color="#AD54F0"/>
<stop offset="1" stop-color="#D24DBC"/>
</linearGradient>
<linearGradient id="paint4_linear_0_1" x1="7.29199" y1="3.64585" x2="11.9505" y2="3.66791" gradientUnits="userSpaceOnUse">
<stop stop-color="#AD54F0"/>
<stop offset="1" stop-color="#D24DBC"/>
</linearGradient>
<linearGradient id="paint5_linear_0_1" x1="17.708" y1="14.5833" x2="22.3665" y2="14.6017" gradientUnits="userSpaceOnUse">
<stop stop-color="#AD54F0"/>
<stop offset="1" stop-color="#D24DBC"/>
</linearGradient>
<clipPath id="clip0_0_1">
<rect width="1440" height="7570" fill="white" transform="translate(-280.5 -575)"/>
</clipPath>
</defs>
</svg>
