<svg width="16" height="16" viewBox="0 0 16 16" fill="none" xmlns="http://www.w3.org/2000/svg">
<path d="M7.38404 0.0218872C13.7524 -0.439602 18.0913 6.48954 14.8249 12.0329C11.7311 17.2835 4.08229 17.2304 1.05648 11.9444C-1.85651 6.8571 1.57981 0.443898 7.38404 0.0232485V0.0218872ZM9.81719 3.20602H8.28798L8.18194 3.31221V10.0794C8.18194 10.2713 7.81222 10.7069 7.64774 10.8267C7.18694 11.163 6.68807 11.2106 6.18649 10.937C4.71165 10.1352 5.67675 7.92165 7.25762 8.40492V6.80264C6.82944 6.5508 6.02065 6.76725 5.57208 6.96736C2.50006 8.33822 3.7846 13.1573 7.20325 12.7326C8.26078 12.6005 9.81719 11.4311 9.81719 10.2931V6.48273C10.2304 6.59572 10.5716 6.85846 10.9943 6.97689C11.3491 7.07627 11.7243 7.14297 12.0927 7.12392V5.48624C10.8217 5.49577 9.86341 4.44755 9.81719 3.20739V3.20602Z" fill="white" fill-opacity="0.6"/>
</svg>
